<svg xmlns="http://www.w3.org/2000/svg" xmlns:svg="http://www.w3.org/2000/svg" xmlns:xlink="http://www.w3.org/1999/xlink" id="svg8" width="163mm" height="312" version="1.1" viewBox="0 0 163 82.55"><defs id="defs2"><linearGradient id="linearGradient4774"><stop style="stop-color:#e53651;stop-opacity:1" id="stop4770" offset="0"/><stop style="stop-color:#e53651;stop-opacity:0" id="stop4772" offset="1"/></linearGradient><marker id="SquareM" orient="auto" refX="0" refY="0" style="overflow:visible"><path id="path4711" d="M -5,-5 V 5 H 5 V -5 Z" style="fill:#0046ff;fill-opacity:1;fill-rule:evenodd;stroke:#0046ff;stroke-width:1.00000003pt;stroke-opacity:1" transform="scale(0.4)"/></marker><marker id="DotM" orient="auto" refX="0" refY="0" style="overflow:visible"><path id="path4702" d="m -2.5,-1 c 0,2.76 -2.24,5 -5,5 -2.76,0 -5,-2.24 -5,-5 0,-2.76 2.24,-5 5,-5 2.76,0 5,2.24 5,5 z" style="fill:#0046ff;fill-opacity:1;fill-rule:evenodd;stroke:#0046ff;stroke-width:1.00000003pt;stroke-opacity:1" transform="matrix(0.4,0,0,0.4,2.96,0.4)"/></marker><marker id="DotL" orient="auto" refX="0" refY="0" style="overflow:visible"><path id="path4699" d="m -2.5,-1 c 0,2.76 -2.24,5 -5,5 -2.76,0 -5,-2.24 -5,-5 0,-2.76 2.24,-5 5,-5 2.76,0 5,2.24 5,5 z" style="fill:#000;fill-opacity:1;fill-rule:evenodd;stroke:#000;stroke-width:1.00000003pt;stroke-opacity:1" transform="matrix(0.8,0,0,0.8,5.92,0.8)"/></marker><marker id="DotM-5" orient="auto" refX="0" refY="0" style="overflow:visible"><path id="path4702-6" d="m -2.5,-1 c 0,2.76 -2.24,5 -5,5 -2.76,0 -5,-2.24 -5,-5 0,-2.76 2.24,-5 5,-5 2.76,0 5,2.24 5,5 z" style="fill:#0046ff;fill-opacity:1;fill-rule:evenodd;stroke:#0046ff;stroke-width:1.00000003pt;stroke-opacity:1" transform="matrix(0.4,0,0,0.4,2.96,0.4)"/></marker><marker id="SquareM-2" orient="auto" refX="0" refY="0" style="overflow:visible"><path id="path4711-9" d="M -5,-5 V 5 H 5 V -5 Z" style="fill:#0046ff;fill-opacity:1;fill-rule:evenodd;stroke:#0046ff;stroke-width:1.00000003pt;stroke-opacity:1" transform="scale(0.4)"/></marker><marker id="DotM-5-2" orient="auto" refX="0" refY="0" style="overflow:visible"><path id="path4702-6-7" d="m -2.5,-1 c 0,2.76 -2.24,5 -5,5 -2.76,0 -5,-2.24 -5,-5 0,-2.76 2.24,-5 5,-5 2.76,0 5,2.24 5,5 z" style="fill:#0046ff;fill-opacity:1;fill-rule:evenodd;stroke:#0046ff;stroke-width:1.00000003pt;stroke-opacity:1" transform="matrix(0.4,0,0,0.4,2.96,0.4)"/></marker><marker id="SquareM-2-0" orient="auto" refX="0" refY="0" style="overflow:visible"><path id="path4711-9-9" d="M -5,-5 V 5 H 5 V -5 Z" style="fill:#0046ff;fill-opacity:1;fill-rule:evenodd;stroke:#0046ff;stroke-width:1.00000003pt;stroke-opacity:1" transform="scale(0.4)"/></marker><marker id="DotM-2" orient="auto" refX="0" refY="0" style="overflow:visible"><path id="path4702-0" d="m -2.5,-1 c 0,2.76 -2.24,5 -5,5 -2.76,0 -5,-2.24 -5,-5 0,-2.76 2.24,-5 5,-5 2.76,0 5,2.24 5,5 z" style="fill:#000;fill-opacity:1;fill-rule:evenodd;stroke:#000;stroke-width:1.00000003pt;stroke-opacity:1" transform="matrix(0.4,0,0,0.4,2.96,0.4)"/></marker><marker id="SquareM-23" orient="auto" refX="0" refY="0" style="overflow:visible"><path id="path4711-7" d="M -5,-5 V 5 H 5 V -5 Z" style="fill:#000;fill-opacity:1;fill-rule:evenodd;stroke:#000;stroke-width:1.00000003pt;stroke-opacity:1" transform="scale(0.4)"/></marker><linearGradient id="linearGradient4776" x1="52.917" x2="173.302" y1="212.333" y2="212.333" gradientUnits="userSpaceOnUse" xlink:href="#linearGradient4774"/><clipPath id="clipPath2644" clipPathUnits="userSpaceOnUse"><rect style="fill:#000;fill-opacity:1;stroke:#000;stroke-width:.26458332;stroke-opacity:1" id="rect2646" width="173.302" height="96.573" x="29.104" y="195.135"/></clipPath></defs><metadata id="metadata5"/><g id="layer1" transform="translate(8.1359365,-201.48542)"><g id="g2586" clip-path="url(#clipPath2644)" transform="translate(-37.041665)"><rect id="rect4554-36-6-2" width="112.448" height="82.021" x="51.594" y="201.75" ry="1.323" style="fill:url(#linearGradient4776);fill-opacity:1;stroke:none;stroke-width:.52916682;stroke-linecap:round;stroke-linejoin:round;stroke-miterlimit:10;stroke-dasharray:none;stroke-dashoffset:0;stroke-opacity:1"/><rect id="rect4554-36-6" width="39.688" height="82.021" x="13.229" y="201.75" ry="1.323" style="fill:#e53651;fill-opacity:1;stroke:none;stroke-width:.52916682;stroke-linecap:round;stroke-linejoin:round;stroke-miterlimit:10;stroke-dasharray:none;stroke-dashoffset:0;stroke-opacity:1"/><rect id="rect4554-36" width="150.813" height="82.021" x="13.229" y="201.75" ry="1.323" style="fill:none;fill-opacity:1;stroke:#6c0e1d;stroke-width:.52916676;stroke-linecap:round;stroke-linejoin:round;stroke-miterlimit:10;stroke-dasharray:none;stroke-dashoffset:0;stroke-opacity:1"/><rect id="rect4554-36-7-5" width="13.229" height="13.229" x="127" y="266.573" ry="1.323" style="fill:#fff;fill-opacity:1;stroke:#000;stroke-width:.52916682;stroke-linecap:round;stroke-linejoin:round;stroke-miterlimit:10;stroke-dasharray:none;stroke-dashoffset:0;stroke-opacity:1"/><text id="text951-3" x="129.911" y="274.51" style="font-style:normal;font-weight:400;font-size:3.96875px;line-height:125%;font-family:sans-serif;letter-spacing:0;word-spacing:0;fill:#000;fill-opacity:1;stroke:none;stroke-width:.26458332px;stroke-linecap:butt;stroke-linejoin:miter;stroke-opacity:1" xml:space="preserve"><tspan style="stroke-width:.26458332px" id="tspan949-5" x="129.911" y="274.51">CSR</tspan></text><rect id="rect4554-36-7-5-6-1" width="51.594" height="64.823" x="70.115" y="214.979" ry="0" style="fill:#ffe0e5;fill-opacity:1;stroke:#6c0e1d;stroke-width:.26499999;stroke-linecap:round;stroke-linejoin:round;stroke-miterlimit:10;stroke-dasharray:none;stroke-dashoffset:0;stroke-opacity:1"/><text id="text959-2-1-0-0-7-4-6" x="106.362" y="236.146" style="font-style:normal;font-weight:400;font-size:3.96875px;line-height:125%;font-family:sans-serif;letter-spacing:0;word-spacing:0;fill:#000;fill-opacity:1;stroke:none;stroke-width:.26458332px;stroke-linecap:butt;stroke-linejoin:miter;stroke-opacity:1" xml:space="preserve"><tspan style="font-size:2.11666727px;stroke-width:.26458332px" id="tspan957-9-8-2-6-4-4-88" x="106.362" y="236.146">IM</tspan></text><text id="text959-2-2" x="74.083" y="221.594" style="font-style:normal;font-weight:400;font-size:3.96875px;line-height:125%;font-family:sans-serif;letter-spacing:0;word-spacing:0;fill:#000;fill-opacity:1;stroke:none;stroke-width:.26458332px;stroke-linecap:butt;stroke-linejoin:miter;stroke-opacity:1" xml:space="preserve"><tspan style="stroke-width:.26458332px" id="tspan957-9-7" x="74.083" y="221.594">ID Stage</tspan></text><rect id="rect4554-36-7-5-6-1-0" width="31.75" height="47.625" x="127" y="214.979" ry="0" style="fill:#ffe0e5;fill-opacity:1;stroke:#6c0e1d;stroke-width:.26458332;stroke-linecap:round;stroke-linejoin:round;stroke-miterlimit:10;stroke-dasharray:none;stroke-dashoffset:0;stroke-opacity:1"/><text id="text959-2-2-9" x="130.969" y="221.594" style="font-style:normal;font-weight:400;font-size:3.96875px;line-height:125%;font-family:sans-serif;letter-spacing:0;word-spacing:0;fill:#000;fill-opacity:1;stroke:none;stroke-width:.26458332px;stroke-linecap:butt;stroke-linejoin:miter;stroke-opacity:1" xml:space="preserve"><tspan style="stroke-width:.26458332px" id="tspan957-9-7-3" x="130.969" y="221.594">EX Block</tspan></text><rect id="rect4554-36-7-5-6-5" width="9.26" height="64.823" x="55.563" y="214.979" ry="0" style="fill:#ffe0e5;fill-opacity:1;stroke:#6c0e1d;stroke-width:.26499999;stroke-linecap:round;stroke-linejoin:round;stroke-miterlimit:10;stroke-dasharray:none;stroke-dashoffset:0;stroke-opacity:1"/><text id="text959-9" x="56.885" y="243.025" style="font-style:normal;font-weight:400;font-size:3.96875px;line-height:125%;font-family:sans-serif;letter-spacing:0;word-spacing:0;fill:#000;fill-opacity:1;stroke:none;stroke-width:.26458332px;stroke-linecap:butt;stroke-linejoin:miter;stroke-opacity:1" xml:space="preserve"><tspan id="tspan1288" style="stroke-width:.26458332px" x="56.885" y="243.025">ID</tspan><tspan style="stroke-width:.26458332px" id="tspan998" x="56.885" y="247.986">EX</tspan></text><path id="path1294-3" d="m 59.002083,279.80206 1.322917,-3.175 1.322917,3.175 z" style="fill:none;fill-rule:evenodd;stroke:#6c0e1d;stroke-width:.26499999;stroke-linecap:butt;stroke-linejoin:round;stroke-miterlimit:4;stroke-dasharray:none;stroke-opacity:1"/><rect id="rect4554-36-7-5-6-6-6" width="25.135" height="13.229" x="74.083" y="228.208" ry="1.323" style="fill:#fff;fill-opacity:1;stroke:#000;stroke-width:.52916676;stroke-linecap:round;stroke-linejoin:round;stroke-miterlimit:10;stroke-dasharray:none;stroke-dashoffset:0;stroke-opacity:1"/><text id="text959-2-0-1" x="76.729" y="234.823" style="font-style:normal;font-weight:400;font-size:3.96875px;line-height:125%;font-family:sans-serif;letter-spacing:0;word-spacing:0;fill:#000;fill-opacity:1;stroke:none;stroke-width:.26458332px;stroke-linecap:butt;stroke-linejoin:miter;stroke-opacity:1" xml:space="preserve"><tspan id="tspan1150-9" style="stroke-width:.26458332px" x="76.729" y="234.823">Decoder</tspan></text><path id="path1294-31" d="m 85.460418,241.4375 1.322916,-3.175 1.322918,3.175 z" style="fill:none;fill-rule:evenodd;stroke:#000;stroke-width:.52916676;stroke-linecap:butt;stroke-linejoin:round;stroke-miterlimit:4;stroke-dasharray:none;stroke-opacity:1"/><rect id="rect4554-36-7-5-6-6-6-9" width="25.135" height="13.229" x="74.083" y="245.406" ry="1.323" style="fill:#fff;fill-opacity:1;stroke:#000;stroke-width:.52916682;stroke-linecap:round;stroke-linejoin:round;stroke-miterlimit:10;stroke-dasharray:none;stroke-dashoffset:0;stroke-opacity:1"/><text id="text959-2-0-1-4" x="76.729" y="252.021" style="font-style:normal;font-weight:400;font-size:3.96875px;line-height:125%;font-family:sans-serif;letter-spacing:0;word-spacing:0;fill:#000;fill-opacity:1;stroke:none;stroke-width:.26458332px;stroke-linecap:butt;stroke-linejoin:miter;stroke-opacity:1" xml:space="preserve"><tspan id="tspan1150-9-7" style="stroke-width:.26458332px" x="76.729" y="252.021">Controller</tspan></text><path id="path1294-31-8" d="m 85.460416,258.63542 1.322915,-3.175 1.322919,3.175 z" style="fill:none;fill-rule:evenodd;stroke:#000;stroke-width:.52916682;stroke-linecap:butt;stroke-linejoin:round;stroke-miterlimit:4;stroke-dasharray:none;stroke-opacity:1"/><rect id="rect4554-36-7-5-6-6-6-9-4" width="25.135" height="13.229" x="74.083" y="262.604" ry="1.323" style="fill:#f08c9b;fill-opacity:1;stroke:#000;stroke-width:.52916682;stroke-linecap:round;stroke-linejoin:round;stroke-miterlimit:10;stroke-dasharray:none;stroke-dashoffset:0;stroke-opacity:1"/><text id="text959-2-0-1-4-5" x="76.2" y="269.219" style="font-style:normal;font-weight:400;font-size:3.96875px;line-height:125%;font-family:sans-serif;letter-spacing:0;word-spacing:0;fill:#000;fill-opacity:1;stroke:none;stroke-width:.26458332px;stroke-linecap:butt;stroke-linejoin:miter;stroke-opacity:1" xml:space="preserve"><tspan id="tspan1150-9-7-0" style="stroke-width:.26458332px" x="76.2" y="269.219">Reg File</tspan></text><path id="path1294-31-8-3" d="m 85.460409,275.83334 8e-6,-2.64584 h 2.645833 l -7e-6,2.64584 z" style="fill:#fffffb;fill-opacity:1;fill-rule:evenodd;stroke:#000;stroke-width:.52916682;stroke-linecap:butt;stroke-linejoin:round;stroke-miterlimit:4;stroke-dasharray:none;stroke-opacity:1"/><rect id="rect4554-36-7-5-6-1-0-6" width="22.49" height="13.229" x="130.969" y="228.208" ry="1.323" style="fill:#fff;fill-opacity:1;stroke:#000;stroke-width:.52916682;stroke-linecap:round;stroke-linejoin:round;stroke-miterlimit:10;stroke-dasharray:none;stroke-dashoffset:0;stroke-opacity:1"/><text id="text959-2-2-9-1" x="139.435" y="236.146" style="font-style:normal;font-weight:400;font-size:3.96875px;line-height:125%;font-family:sans-serif;letter-spacing:0;word-spacing:0;fill:#000;fill-opacity:1;stroke:none;stroke-width:.26458332px;stroke-linecap:butt;stroke-linejoin:miter;stroke-opacity:1" xml:space="preserve"><tspan style="stroke-width:.26458332px" id="tspan957-9-7-3-0" x="139.435" y="236.146">ALU</tspan></text><path id="path1152-63" d="m 129.64583,233.76458 v -1.5875 h 2.11667 l 0.79375,0.79375 -0.79375,0.79375 z" style="fill:#fff;fill-opacity:1;fill-rule:evenodd;stroke:#000;stroke-width:.39687499;stroke-linecap:round;stroke-linejoin:round;stroke-miterlimit:4;stroke-dasharray:none;stroke-opacity:1;paint-order:stroke fill markers"/><path id="path1152-6-9-2" d="m 129.64583,237.73333 v -1.5875 h 2.11667 l 0.79375,0.79375 -0.79375,0.79375 z" style="fill:#fff;fill-opacity:1;fill-rule:evenodd;stroke:#000;stroke-width:.39687499;stroke-linecap:round;stroke-linejoin:round;stroke-miterlimit:4;stroke-dasharray:none;stroke-opacity:1;paint-order:stroke fill markers"/><text id="text959-2-1-0-0" x="133.085" y="233.765" style="font-style:normal;font-weight:400;font-size:3.96875px;line-height:125%;font-family:sans-serif;letter-spacing:0;word-spacing:0;fill:#000;fill-opacity:1;stroke:none;stroke-width:.26458332px;stroke-linecap:butt;stroke-linejoin:miter;stroke-opacity:1" xml:space="preserve"><tspan style="font-size:2.11666679px;stroke-width:.26458332px" id="tspan957-9-8-2-6" x="133.085" y="233.765">OpA</tspan></text><text id="text959-2-1-0-0-1" x="133.085" y="237.733" style="font-style:normal;font-weight:400;font-size:3.96875px;line-height:125%;font-family:sans-serif;letter-spacing:0;word-spacing:0;fill:#000;fill-opacity:1;stroke:none;stroke-width:.26458332px;stroke-linecap:butt;stroke-linejoin:miter;stroke-opacity:1" xml:space="preserve"><tspan style="font-size:2.11666703px;stroke-width:.26458332px" id="tspan957-9-8-2-6-5" x="133.085" y="237.733">OpB</tspan></text><rect id="rect4554-36-7-5-6-1-0-6-5" width="22.49" height="14.552" x="130.969" y="245.406" ry="1.323" style="fill:#f08c9b;fill-opacity:1;stroke:#000;stroke-width:.52916682;stroke-linecap:round;stroke-linejoin:round;stroke-miterlimit:10;stroke-dasharray:none;stroke-dashoffset:0;stroke-opacity:1"/><text id="text959-2-2-9-1-4" x="138.112" y="250.963" style="font-style:normal;font-weight:400;font-size:3.96875px;line-height:125%;font-family:sans-serif;letter-spacing:0;word-spacing:0;fill:#000;fill-opacity:1;stroke:none;stroke-width:.26458332px;stroke-linecap:butt;stroke-linejoin:miter;stroke-opacity:1" xml:space="preserve"><tspan style="stroke-width:.26458332px" id="tspan957-9-7-3-0-7" x="138.112" y="250.963">MULT</tspan><tspan id="tspan1532" style="stroke-width:.26458332px" x="138.112" y="255.923">DIV</tspan></text><path id="path1152-6-9-2-5-6" d="m 100.54167,273.71667 v -1.5875 h -2.116668 l -0.79376,0.79375 0.79376,0.79375 z" style="fill:#fff;fill-opacity:1;fill-rule:evenodd;stroke:#000;stroke-width:.39687499;stroke-linecap:round;stroke-linejoin:round;stroke-miterlimit:4;stroke-dasharray:none;stroke-opacity:1;paint-order:stroke fill markers"/><path id="path1152-63-6-9" d="M 97.895833,266.8375 V 265.25 h 2.116667 l 0.79375,0.79375 -0.79375,0.79375 z" style="fill:#fff;fill-opacity:1;fill-rule:evenodd;stroke:#000;stroke-width:.39687499;stroke-linecap:round;stroke-linejoin:round;stroke-miterlimit:4;stroke-dasharray:none;stroke-opacity:1;paint-order:stroke fill markers"/><path id="path1152-6-9-2-5-3" d="m 97.895833,269.74792 v -1.5875 h 2.116667 l 0.79375,0.79375 -0.79375,0.79375 z" style="fill:#fff;fill-opacity:1;fill-rule:evenodd;stroke:#000;stroke-width:.39687499;stroke-linecap:round;stroke-linejoin:round;stroke-miterlimit:4;stroke-dasharray:none;stroke-opacity:1;paint-order:stroke fill markers"/><text id="text959-2-1-0-0-7" x="92.869" y="266.837" style="font-style:normal;font-weight:400;font-size:3.96875px;line-height:125%;font-family:sans-serif;letter-spacing:0;word-spacing:0;fill:#000;fill-opacity:1;stroke:none;stroke-width:.26458332px;stroke-linecap:butt;stroke-linejoin:miter;stroke-opacity:1" xml:space="preserve"><tspan style="font-size:2.11666703px;stroke-width:.26458332px" id="tspan957-9-8-2-6-4" x="92.869" y="266.837">RdA</tspan></text><text id="text959-2-1-0-0-7-5" x="92.869" y="269.748" style="font-style:normal;font-weight:400;font-size:3.96875px;line-height:125%;font-family:sans-serif;letter-spacing:0;word-spacing:0;fill:#000;fill-opacity:1;stroke:none;stroke-width:.26458332px;stroke-linecap:butt;stroke-linejoin:miter;stroke-opacity:1" xml:space="preserve"><tspan style="font-size:2.11666727px;stroke-width:.26458332px" id="tspan957-9-8-2-6-4-2" x="92.869" y="269.748">RdB</tspan></text><text id="text959-2-1-0-0-7-5-5" x="93.398" y="273.717" style="font-style:normal;font-weight:400;font-size:3.96875px;line-height:125%;font-family:sans-serif;letter-spacing:0;word-spacing:0;fill:#000;fill-opacity:1;stroke:none;stroke-width:.26458332px;stroke-linecap:butt;stroke-linejoin:miter;stroke-opacity:1" xml:space="preserve"><tspan style="font-size:2.11666727px;stroke-width:.26458332px" id="tspan957-9-8-2-6-4-2-4" x="93.398" y="273.717">Wr</tspan></text><path id="path1152-63-6-9-7" d="M 97.895833,235.0875 V 233.5 h 2.116667 l 0.79375,0.79375 -0.79375,0.79375 z" style="fill:#fff;fill-opacity:1;fill-rule:evenodd;stroke:#000;stroke-width:.39687499;stroke-linecap:round;stroke-linejoin:round;stroke-miterlimit:4;stroke-dasharray:none;stroke-opacity:1;paint-order:stroke fill markers"/><text id="text959-2-1-0-0-7-4" x="94.456" y="235.087" style="font-style:normal;font-weight:400;font-size:3.96875px;line-height:125%;font-family:sans-serif;letter-spacing:0;word-spacing:0;fill:#000;fill-opacity:1;stroke:none;stroke-width:.26458332px;stroke-linecap:butt;stroke-linejoin:miter;stroke-opacity:1" xml:space="preserve"><tspan style="font-size:2.11666727px;stroke-width:.26458332px" id="tspan957-9-8-2-6-4-4" x="94.456" y="235.087">IM</tspan></text><path id="path1660" d="m 105.83333,228.7375 v 13.22917 l 3.96875,-2.11667 v -8.99583 l -3.96875,-2.11667" style="fill:#ffe0e5;fill-opacity:1;fill-rule:evenodd;stroke:#000;stroke-width:.39687499;stroke-linecap:round;stroke-linejoin:round;stroke-miterlimit:4;stroke-dasharray:none;stroke-opacity:1"/><text id="text959-2-1-0-0-7-4-3" x="106.362" y="232.971" style="font-style:normal;font-weight:400;font-size:3.96875px;line-height:125%;font-family:sans-serif;letter-spacing:0;word-spacing:0;fill:#000;fill-opacity:1;stroke:none;stroke-width:.26458332px;stroke-linecap:butt;stroke-linejoin:miter;stroke-opacity:1" xml:space="preserve"><tspan style="font-size:2.11666727px;stroke-width:.26458332px" id="tspan957-9-8-2-6-4-4-0" x="106.362" y="232.971">PC</tspan></text><text id="text959-2-1-0-0-7-4-7" x="106.362" y="239.585" style="font-style:normal;font-weight:400;font-size:3.96875px;line-height:125%;font-family:sans-serif;letter-spacing:0;word-spacing:0;fill:#000;fill-opacity:1;stroke:none;stroke-width:.26458332px;stroke-linecap:butt;stroke-linejoin:miter;stroke-opacity:1" xml:space="preserve"><tspan style="font-size:2.11666727px;stroke-width:.26458332px" id="tspan957-9-8-2-6-4-4-8" x="106.362" y="239.585">RF</tspan></text><path id="path1660-4" d="m 105.83333,245.40625 v 11.1125 l 3.96875,-2.11667 v -6.87916 l -3.96875,-2.11667" style="fill:#ffe0e5;fill-opacity:1;fill-rule:evenodd;stroke:#000;stroke-width:.39687499;stroke-linecap:round;stroke-linejoin:round;stroke-miterlimit:4;stroke-dasharray:none;stroke-opacity:1"/><text id="text959-2-1-0-0-7-4-7-4" x="106.362" y="253.344" style="font-style:normal;font-weight:400;font-size:3.96875px;line-height:125%;font-family:sans-serif;letter-spacing:0;word-spacing:0;fill:#000;fill-opacity:1;stroke:none;stroke-width:.26458332px;stroke-linecap:butt;stroke-linejoin:miter;stroke-opacity:1" xml:space="preserve"><tspan style="font-size:2.11666727px;stroke-width:.26458332px" id="tspan957-9-8-2-6-4-4-8-9" x="106.362" y="253.344">RF</tspan></text><text id="text959-2-1-0-0-7-4-6-2" x="106.362" y="250.169" style="font-style:normal;font-weight:400;font-size:3.96875px;line-height:125%;font-family:sans-serif;letter-spacing:0;word-spacing:0;fill:#000;fill-opacity:1;stroke:none;stroke-width:.26458332px;stroke-linecap:butt;stroke-linejoin:miter;stroke-opacity:1" xml:space="preserve"><tspan style="font-size:2.11666727px;stroke-width:.26458332px" id="tspan957-9-8-2-6-4-4-88-0" x="106.362" y="250.169">IM</tspan></text><path id="path1729" d="m 105.83333,235.61667 h -2.64583 v -1.32292 h -2.38125" style="fill:none;fill-rule:evenodd;stroke:#000;stroke-width:.26458332px;stroke-linecap:butt;stroke-linejoin:round;stroke-opacity:1"/><path id="path1731" d="M 64.822916,225.5625 H 103.1875 v 6.61458 h 2.64583" style="fill:none;fill-rule:evenodd;stroke:#000;stroke-width:.26458332px;stroke-linecap:butt;stroke-linejoin:round;stroke-opacity:1"/><path id="path1733" d="m 100.80625,266.04375 h 1.05833 v -27.25208 h 3.96875" style="fill:none;fill-rule:evenodd;stroke:#000;stroke-width:.26458332px;stroke-linecap:butt;stroke-linejoin:round;stroke-opacity:1"/><path id="path1735" d="M 105.83333,249.375 H 103.1875 V 235.61667" style="fill:none;fill-rule:evenodd;stroke:#000;stroke-width:.26458332px;stroke-linecap:butt;stroke-linejoin:round;stroke-opacity:1"/><circle id="path1737" cx="103.188" cy="235.617" r=".132" style="fill:#000;fill-opacity:1;stroke:#000;stroke-width:.39687499;stroke-linecap:round;stroke-linejoin:round;stroke-miterlimit:4;stroke-dasharray:none;stroke-dashoffset:0;stroke-opacity:1;paint-order:stroke fill markers"/><path id="path1739" d="m 100.80625,268.95417 h 2.38125 v -16.13959 h 2.64583" style="fill:none;fill-rule:evenodd;stroke:#000;stroke-width:.26458332px;stroke-linecap:butt;stroke-linejoin:round;stroke-opacity:1"/><path id="path1660-4-6" d="m 116.41667,229.26667 v 7.40833 l 3.96875,-2.11667 v -3.17499 l -3.96875,-2.11667" style="fill:#ffe0e5;fill-opacity:1;fill-rule:evenodd;stroke:#000;stroke-width:.39687499;stroke-linecap:round;stroke-linejoin:round;stroke-miterlimit:4;stroke-dasharray:none;stroke-opacity:1"/><path id="path1660-4-6-4" d="m 116.41667,237.53826 v 7.40833 l 3.96875,-2.11667 v -3.17499 l -3.96875,-2.11667" style="fill:#ffe0e5;fill-opacity:1;fill-rule:evenodd;stroke:#000;stroke-width:.39687499;stroke-linecap:round;stroke-linejoin:round;stroke-miterlimit:4;stroke-dasharray:none;stroke-opacity:1"/><path id="path1810" d="m 109.80208,235.61667 h 2.64584 v -3.70417 h 3.96875" style="fill:none;fill-rule:evenodd;stroke:#000;stroke-width:.26458332px;stroke-linecap:butt;stroke-linejoin:round;stroke-opacity:1"/><path id="path1812" d="m 120.38542,232.97084 h 2.64583 v -1e-5 h 6.61458" style="fill:none;fill-rule:evenodd;stroke:#000;stroke-width:.26458332px;stroke-linecap:butt;stroke-linejoin:round;stroke-opacity:1"/><path id="path1152-6-9-2-5-6-7" d="m 128.05833,276.62708 v -1.5875 h -2.11667 l -0.79376,0.79375 0.79376,0.79375 z" style="fill:#fff;fill-opacity:1;fill-rule:evenodd;stroke:#000;stroke-width:.39687499;stroke-linecap:round;stroke-linejoin:round;stroke-miterlimit:4;stroke-dasharray:none;stroke-opacity:1;paint-order:stroke fill markers"/><rect id="rect4554-36-7-5-1" width="13.229" height="13.229" x="145.521" y="266.573" ry="1.323" style="fill:#fff;fill-opacity:1;stroke:#000;stroke-width:.52916682;stroke-linecap:round;stroke-linejoin:round;stroke-miterlimit:10;stroke-dasharray:none;stroke-dashoffset:0;stroke-opacity:1"/><text id="text955" x="148.167" y="274.51" style="font-style:normal;font-weight:400;font-size:3.96875px;line-height:125%;font-family:sans-serif;letter-spacing:0;word-spacing:0;fill:#000;fill-opacity:1;stroke:none;stroke-width:.26458332px;stroke-linecap:butt;stroke-linejoin:miter;stroke-opacity:1" xml:space="preserve"><tspan style="stroke-width:.26458332px" id="tspan953" x="148.167" y="274.51">LSU</tspan></text><path id="path1294-31-8-7" d="m 141.2875,259.95831 1.32292,-3.175 1.32292,3.175 z" style="fill:#fff;fill-opacity:1;fill-rule:evenodd;stroke:#000;stroke-width:.52916682;stroke-linecap:butt;stroke-linejoin:round;stroke-miterlimit:4;stroke-dasharray:none;stroke-opacity:1"/><path id="path1294-31-8-7-2" d="m 150.8125,279.80208 1.32292,-3.175 1.32292,3.175 z" style="fill:none;fill-rule:evenodd;stroke:#000;stroke-width:.52916682;stroke-linecap:butt;stroke-linejoin:round;stroke-miterlimit:4;stroke-dasharray:none;stroke-opacity:1"/><path id="path1294-31-8-7-7" d="m 132.02708,279.80206 1.32292,-3.175 1.32292,3.175 z" style="fill:none;fill-rule:evenodd;stroke:#000;stroke-width:.52916682;stroke-linecap:butt;stroke-linejoin:round;stroke-miterlimit:4;stroke-dasharray:none;stroke-opacity:1"/><path id="path1152-2" d="m 157.42708,269.21875 v 1.5875 h 2.11667 l 0.79375,-0.79375 -0.79375,-0.79375 z" style="fill:#fff;fill-opacity:1;fill-rule:evenodd;stroke:#000;stroke-width:.39687499;stroke-linecap:round;stroke-linejoin:round;stroke-miterlimit:4;stroke-dasharray:none;stroke-opacity:1;paint-order:stroke fill markers"/><path id="path1152-6-9-26" d="m 160.07292,276.36251 v 1.5875 h -2.11667 l -0.79375,-0.79375 0.79375,-0.79375 z" style="fill:#fff;fill-opacity:1;fill-rule:evenodd;stroke:#000;stroke-width:.39687499;stroke-linecap:round;stroke-linejoin:round;stroke-miterlimit:4;stroke-dasharray:none;stroke-opacity:1;paint-order:stroke fill markers"/><path id="path1152-2-1" d="m 157.42708,272.12917 v 1.5875 h 2.11667 l 0.79375,-0.79375 -0.79375,-0.79375 z" style="fill:#fff;fill-opacity:1;fill-rule:evenodd;stroke:#000;stroke-width:.39687499;stroke-linecap:round;stroke-linejoin:round;stroke-miterlimit:4;stroke-dasharray:none;stroke-opacity:1;paint-order:stroke fill markers"/><rect id="rect4554-36-7-5-6-2-0" width="7.938" height="52.917" x="182.562" y="230.854" ry="1.323" style="fill:#fff;fill-opacity:1;stroke:#000;stroke-width:.39687499;stroke-linecap:round;stroke-linejoin:round;stroke-miterlimit:10;stroke-dasharray:none;stroke-dashoffset:0;stroke-opacity:1"/><text id="text971-6" x="-267.896" y="187.854" transform="rotate(-90)" style="font-style:normal;font-weight:400;font-size:3.96875px;line-height:125%;font-family:sans-serif;letter-spacing:0;word-spacing:0;fill:#000;fill-opacity:1;stroke:none;stroke-width:.26458332px;stroke-linecap:butt;stroke-linejoin:miter;stroke-opacity:1" xml:space="preserve"><tspan style="stroke-width:.26458332px" id="tspan969-1" x="-267.896" y="187.854">Data Mem</tspan></text><path id="path1152-2-4" d="m 181.23962,269.21875 v 1.5875 h 2.11667 l 0.79375,-0.79375 -0.79375,-0.79375 z" style="fill:#fff;fill-opacity:1;fill-rule:evenodd;stroke:#000;stroke-width:.39687499;stroke-linecap:round;stroke-linejoin:round;stroke-miterlimit:4;stroke-dasharray:none;stroke-opacity:1;paint-order:stroke fill markers"/><path id="path1152-6-9-26-9" d="m 183.88546,276.36251 v 1.5875 h -2.11667 l -0.79375,-0.79375 0.79375,-0.79375 z" style="fill:#fff;fill-opacity:1;fill-rule:evenodd;stroke:#000;stroke-width:.39687499;stroke-linecap:round;stroke-linejoin:round;stroke-miterlimit:4;stroke-dasharray:none;stroke-opacity:1;paint-order:stroke fill markers"/><path id="path1152-2-1-0" d="m 181.23962,272.12917 v 1.5875 h 2.11667 l 0.79375,-0.79375 -0.79375,-0.79375 z" style="fill:#fff;fill-opacity:1;fill-rule:evenodd;stroke:#000;stroke-width:.39687499;stroke-linecap:round;stroke-linejoin:round;stroke-miterlimit:4;stroke-dasharray:none;stroke-opacity:1;paint-order:stroke fill markers"/><path id="path1188-2-9" d="M 181.23958,270.0125 H 160.3375" style="fill:none;fill-rule:evenodd;stroke:#000;stroke-width:.39687499;stroke-linecap:butt;stroke-linejoin:miter;stroke-miterlimit:4;stroke-dasharray:none;stroke-opacity:1"/><path id="path1188-2-9-1" d="M 181.23958,272.92292 H 160.3375" style="fill:none;fill-rule:evenodd;stroke:#000;stroke-width:.39687499;stroke-linecap:butt;stroke-linejoin:miter;stroke-miterlimit:4;stroke-dasharray:none;stroke-opacity:1"/><path id="path1188-2-9-7" d="m 180.975,277.15625 -20.90209,10e-6" style="fill:none;fill-rule:evenodd;stroke:#000;stroke-width:.39687499;stroke-linecap:butt;stroke-linejoin:miter;stroke-miterlimit:4;stroke-dasharray:none;stroke-opacity:1"/><text id="text959-2-1-7" x="164.835" y="268.863" style="font-style:normal;font-weight:400;font-size:3.96875px;line-height:125%;font-family:sans-serif;letter-spacing:0;word-spacing:0;fill:#000;fill-opacity:1;stroke:none;stroke-width:.26458332px;stroke-linecap:butt;stroke-linejoin:miter;stroke-opacity:1" xml:space="preserve"><tspan style="font-size:2.82222223px;stroke-width:.26458332px" id="tspan957-9-8-1" x="164.835" y="268.863">addr_o</tspan></text><text id="text959-2-1-7-1" x="164.835" y="275.569" style="font-style:normal;font-weight:400;font-size:3.96875px;line-height:125%;font-family:sans-serif;letter-spacing:0;word-spacing:0;fill:#000;fill-opacity:1;stroke:none;stroke-width:.26458332px;stroke-linecap:butt;stroke-linejoin:miter;stroke-opacity:1" xml:space="preserve"><tspan style="font-size:2.82222223px;stroke-width:.26458332px" id="tspan957-9-8-1-5" x="164.835" y="275.569">wdata_o</tspan></text><text id="text959-2-1-7-1-9" x="164.835" y="280.331" style="font-style:normal;font-weight:400;font-size:3.96875px;line-height:125%;font-family:sans-serif;letter-spacing:0;word-spacing:0;fill:#000;fill-opacity:1;stroke:none;stroke-width:.26458332px;stroke-linecap:butt;stroke-linejoin:miter;stroke-opacity:1" xml:space="preserve"><tspan style="font-size:2.82222223px;stroke-width:.26458332px" id="tspan957-9-8-1-5-7" x="164.835" y="280.331">rdata_i</tspan></text><text id="text2070" x="70.115" y="209.688" style="font-style:normal;font-weight:400;font-size:3.96875px;line-height:125%;font-family:sans-serif;letter-spacing:0;word-spacing:0;fill:#000;fill-opacity:1;stroke:none;stroke-width:.26458332px;stroke-linecap:butt;stroke-linejoin:miter;stroke-opacity:1" xml:space="preserve"><tspan style="font-style:normal;font-variant:normal;font-weight:700;font-stretch:normal;font-size:6.3499999px;font-family:sans-serif;-inkscape-font-specification:'sans-serif Bold';fill:#fff;fill-opacity:1;stroke-width:.26458332px" id="tspan2068" x="70.115" y="209.688">Ibex Core</tspan></text><path id="path1812-7" d="m 120.38542,241.17292 h 2.64583 v -4.23334 h 6.61458" style="fill:none;fill-rule:evenodd;stroke:#000;stroke-width:.26458332px;stroke-linecap:butt;stroke-linejoin:round;stroke-opacity:1"/><path id="path1152-6-9-2-7" d="m 152.13542,235.61667 v -1.5875 h 2.11667 l 0.79375,0.79375 -0.79375,0.79375 z" style="fill:#fff;fill-opacity:1;fill-rule:evenodd;stroke:#000;stroke-width:.39687499;stroke-linecap:round;stroke-linejoin:round;stroke-miterlimit:4;stroke-dasharray:none;stroke-opacity:1;paint-order:stroke fill markers"/><path id="path1152-63-3" d="m 152.13542,253.07917 v -1.5875 h 2.11667 l 0.79375,0.79375 -0.79375,0.79375 z" style="fill:#fff;fill-opacity:1;fill-rule:evenodd;stroke:#000;stroke-width:.39687499;stroke-linecap:round;stroke-linejoin:round;stroke-miterlimit:4;stroke-dasharray:none;stroke-opacity:1;paint-order:stroke fill markers"/><path id="path1152-6-9-2-6" d="m 152.13542,257.57708 v -1.5875 h 2.11667 l 0.79375,0.79375 -0.79375,0.79375 z" style="fill:#fff;fill-opacity:1;fill-rule:evenodd;stroke:#000;stroke-width:.39687499;stroke-linecap:round;stroke-linejoin:round;stroke-miterlimit:4;stroke-dasharray:none;stroke-opacity:1;paint-order:stroke fill markers"/><path id="path1152-6-9-2-7-5" d="m 152.13542,249.63958 v -1.5875 h 2.11667 l 0.79375,0.79375 -0.79375,0.79375 z" style="fill:#fff;fill-opacity:1;fill-rule:evenodd;stroke:#000;stroke-width:.39687499;stroke-linecap:round;stroke-linejoin:round;stroke-miterlimit:4;stroke-dasharray:none;stroke-opacity:1;paint-order:stroke fill markers"/><path id="path2140" d="m 109.80208,251.22708 h 2.64584 v -11.64167 h 3.96875" style="fill:none;fill-rule:evenodd;stroke:#000;stroke-width:.26458332px;stroke-linecap:butt;stroke-linejoin:round;stroke-opacity:1"/><path id="path2142" d="m 116.41667,234.29375 h -2.64584 v 13.75833 h 15.875 v -3.96875 h 26.45834 v 4.7625 h -1.05833" style="fill:none;fill-rule:evenodd;stroke:#000;stroke-width:.26458332px;stroke-linecap:butt;stroke-linejoin:round;stroke-opacity:1"/><path id="path2144" d="m 116.15208,242.76041 h -1.05833 v 3.96875 h 13.22917 v -3.96875 l 29.10416,1e-5 v 9.525 h -2.38125" style="fill:none;fill-rule:evenodd;stroke:#000;stroke-width:.26458332px;stroke-linecap:butt;stroke-linejoin:round;stroke-opacity:1"/><path id="path1152-63-6" d="m 129.64583,251.22708 v -1.5875 h 2.11667 l 0.79375,0.79375 -0.79375,0.79375 z" style="fill:#fff;fill-opacity:1;fill-rule:evenodd;stroke:#000;stroke-width:.39687499;stroke-linecap:round;stroke-linejoin:round;stroke-miterlimit:4;stroke-dasharray:none;stroke-opacity:1;paint-order:stroke fill markers"/><path id="path1152-6-9-2-3" d="m 129.64583,254.40208 v -1.5875 h 2.11667 l 0.79375,0.79375 -0.79375,0.79375 z" style="fill:#fff;fill-opacity:1;fill-rule:evenodd;stroke:#000;stroke-width:.39687499;stroke-linecap:round;stroke-linejoin:round;stroke-miterlimit:4;stroke-dasharray:none;stroke-opacity:1;paint-order:stroke fill markers"/><text id="text959-2-1-0-0-9" x="133.085" y="251.227" style="font-style:normal;font-weight:400;font-size:3.96875px;line-height:125%;font-family:sans-serif;letter-spacing:0;word-spacing:0;fill:#000;fill-opacity:1;stroke:none;stroke-width:.26458332px;stroke-linecap:butt;stroke-linejoin:miter;stroke-opacity:1" xml:space="preserve"><tspan style="font-size:2.11666703px;stroke-width:.26458332px" id="tspan957-9-8-2-6-48" x="133.085" y="251.227">OpA</tspan></text><text id="text959-2-1-0-0-1-1" x="133.085" y="254.402" style="font-style:normal;font-weight:400;font-size:3.96875px;line-height:125%;font-family:sans-serif;letter-spacing:0;word-spacing:0;fill:#000;fill-opacity:1;stroke:none;stroke-width:.26458332px;stroke-linecap:butt;stroke-linejoin:miter;stroke-opacity:1" xml:space="preserve"><tspan style="font-size:2.11666727px;stroke-width:.26458332px" id="tspan957-9-8-2-6-5-2" x="133.085" y="254.402">OpB</tspan></text><path id="path2176" d="m 101.86458,266.04375 h 11.90625 v -15.61042 h 15.875" style="fill:none;fill-rule:evenodd;stroke:#000;stroke-width:.26458332px;stroke-linecap:butt;stroke-linejoin:round;stroke-opacity:1"/><circle id="path1737-9" cx="101.865" cy="266.044" r=".132" style="fill:#000;fill-opacity:1;stroke:#000;stroke-width:.39687499;stroke-linecap:round;stroke-linejoin:round;stroke-miterlimit:4;stroke-dasharray:none;stroke-dashoffset:0;stroke-opacity:1;paint-order:stroke fill markers"/><circle id="path1737-3" cx="103.188" cy="268.954" r=".132" style="fill:#000;fill-opacity:1;stroke:#000;stroke-width:.39687499;stroke-linecap:round;stroke-linejoin:round;stroke-miterlimit:4;stroke-dasharray:none;stroke-dashoffset:0;stroke-opacity:1;paint-order:stroke fill markers"/><path id="path2199" d="m 103.1875,268.95417 h 11.90625 v -15.34584 h 14.55208" style="fill:none;fill-rule:evenodd;stroke:#000;stroke-width:.26458332px;stroke-linecap:butt;stroke-linejoin:round;stroke-opacity:1"/><path id="path1660-4-6-9" d="m 109.80208,271.07083 v 7.40833 l -3.96875,-2.11667 v -3.17499 l 3.96875,-2.11667" style="fill:#ffe0e5;fill-opacity:1;fill-rule:evenodd;stroke:#000;stroke-width:.39687499;stroke-linecap:round;stroke-linejoin:round;stroke-miterlimit:4;stroke-dasharray:none;stroke-opacity:1"/><path id="path2216" d="m 105.83333,274.775 h -2.64583 v -1.85208 h -2.64583" style="fill:none;fill-rule:evenodd;stroke:#000;stroke-width:.26458332px;stroke-linecap:butt;stroke-linejoin:round;stroke-opacity:1"/><path id="path2218" d="m 109.80208,275.83333 h 5.82084 3.70416 5.82084" style="fill:none;fill-rule:evenodd;stroke:#000;stroke-width:.26458332px;stroke-linecap:butt;stroke-linejoin:round;stroke-opacity:1"/><path id="path1152-6-9-2-5-6-7-0" d="m 146.84375,277.95 v -1.5875 h -2.11667 l -0.79376,0.79375 0.79376,0.79375 z" style="fill:#fff;fill-opacity:1;fill-rule:evenodd;stroke:#000;stroke-width:.39687499;stroke-linecap:round;stroke-linejoin:round;stroke-miterlimit:4;stroke-dasharray:none;stroke-opacity:1;paint-order:stroke fill markers"/><path id="path2235" d="m 109.80208,277.15625 h 14.55209 V 281.125 H 142.875 v -3.96875 h 1.05833" style="fill:none;fill-rule:evenodd;stroke:#000;stroke-width:.26458332px;stroke-linecap:butt;stroke-linejoin:round;stroke-opacity:1"/><path id="path2239" d="m 155.04583,256.78333 h 5.02709 v 7.14375 h -42.33334 v 9.26042 h -7.9375" style="fill:none;fill-rule:evenodd;stroke:#000;stroke-width:.26458332px;stroke-linecap:butt;stroke-linejoin:round;stroke-opacity:1"/><path id="path2241" d="m 155.04583,234.82292 h 6.35 V 265.25 H 119.0625 v 9.26042 h -9.26042" style="fill:none;fill-rule:evenodd;stroke:#000;stroke-width:.26458332px;stroke-linecap:butt;stroke-linejoin:miter;stroke-opacity:1"/><path id="path1152-6-9-2-3-0" d="m 129.64583,257.57708 v -1.5875 h 2.11667 l 0.79375,0.79375 -0.79375,0.79375 z" style="fill:#fff;fill-opacity:1;fill-rule:evenodd;stroke:#000;stroke-width:.39687499;stroke-linecap:round;stroke-linejoin:round;stroke-miterlimit:4;stroke-dasharray:none;stroke-opacity:1;paint-order:stroke fill markers"/><path id="path2288" d="m 125.67708,265.25 v -8.46667 h 3.96875" style="fill:none;fill-rule:evenodd;stroke:#000;stroke-width:.26458332px;stroke-linecap:butt;stroke-linejoin:round;stroke-opacity:1"/><circle id="path1737-9-9" cx="125.677" cy="265.25" r=".132" style="fill:#000;fill-opacity:1;stroke:#000;stroke-width:.39687499;stroke-linecap:round;stroke-linejoin:round;stroke-miterlimit:4;stroke-dasharray:none;stroke-dashoffset:0;stroke-opacity:1;paint-order:stroke fill markers"/><path id="path2320" d="m 21.166668,281.12501 33.072915,-10e-6 H 119.0625 v -6.61458" style="fill:none;fill-rule:evenodd;stroke:#000;stroke-width:.26458332px;stroke-linecap:butt;stroke-linejoin:round;stroke-opacity:1"/><circle id="path1737-9-9-5" cx="119.063" cy="274.51" r=".132" style="fill:#000;fill-opacity:1;stroke:#000;stroke-width:.39687499;stroke-linecap:round;stroke-linejoin:round;stroke-miterlimit:4;stroke-dasharray:none;stroke-dashoffset:0;stroke-opacity:1;paint-order:stroke fill markers"/><path id="path2367-5" d="m 64.822917,234.29375 h 7.9375" style="fill:none;fill-rule:evenodd;stroke:#000;stroke-width:.26499999;stroke-linecap:butt;stroke-linejoin:round;stroke-miterlimit:4;stroke-dasharray:none;stroke-opacity:1"/><path id="path1152-6-9-6-1-9" d="m 72.892712,233.5 10e-7,1.5875 h 2.116666 l 0.79375,-0.79375 -0.79375,-0.79375 z" style="fill:#fff;fill-opacity:1;fill-rule:evenodd;stroke:#000;stroke-width:.39687499;stroke-linecap:round;stroke-linejoin:round;stroke-miterlimit:4;stroke-dasharray:none;stroke-opacity:1;paint-order:stroke fill markers"/><path id="path2580" d="m 136.4242,205.76336 c 0.0485,0.083 -0.0483,4.72377 -0.083,5.25611 0,0 -0.93366,0.007 -0.98891,-0.0275 -0.0553,-0.0417 -0.0553,-5.11111 0.0485,-5.20086 0.0965,-0.09 1.00267,-0.0762 1.02341,-0.0278 m 5.26246,1.71513 c 0.083,0 0.58102,2.27563 0.58102,2.27563 0.17294,-0.53975 0.53256,-1.3625 0.60855,-1.6256 -0.0343,-0.11748 -0.15897,-0.44958 -0.15897,-0.52536 0.0692,-0.0692 0.87144,-0.1524 0.95441,-0.10392 0.0692,0.0417 0.60156,2.13021 0.63627,2.24092 0.0415,-0.11071 0.66379,-2.26844 0.6985,-2.27543 0.0417,-0.006 1.00986,0.20067 1.00288,0.24215 -0.0967,0.43561 -1.09263,3.27131 -1.12734,3.30602 -0.09,0.076 -1.08606,-0.014 -1.09284,-0.0345 -0.007,-0.006 -0.2487,-0.72623 -0.47032,-1.61841 -0.29739,0.87165 -0.62251,1.63217 -0.63627,1.65312 -0.0902,0.076 -1.08585,-0.014 -1.09283,-0.0279 -0.007,-0.0135 -0.91292,-3.09139 -0.90594,-3.30601 0,-0.0487 0.91313,-0.20067 1.00288,-0.20067 m 4.8061,3.50647 c -0.0345,-0.32491 -0.007,-4.32943 0.0555,-4.80652 0.35285,-0.0417 1.09982,-0.0762 1.63936,-0.0762 1.32779,0 2.08852,0.52536 2.08852,1.68063 0,0.71925 -0.33888,1.14109 -0.87821,1.3625 0.52557,0.63627 1.06511,1.47997 1.04415,1.5077 -0.076,0.10372 -0.87143,0.43561 -1.07886,0.42884 -0.0207,0 -0.62251,-0.97515 -1.19655,-1.72932 -0.0277,0.007 -0.0622,0.007 -0.09,0.007 -0.11769,0 -0.28364,-0.007 -0.36661,-0.0138 -0.007,0.4773 -0.007,1.41773 -0.0345,1.6184 -0.0692,0.0278 -1.17581,0.0622 -1.18279,0.0207 m 1.78435,-2.57979 c 0.44958,0 0.76094,-0.17992 0.76094,-0.59479 0,-0.38735 -0.20066,-0.63627 -0.80222,-0.63627 -0.13144,0 -0.31834,0.006 -0.45656,0.0207 0.007,0.18669 0,0.94763 0,1.18957 0.13123,0.014 0.33866,0.0207 0.49784,0.0207 m 4.02463,-2.25467 c 0.0483,0.29061 0.0417,4.37112 -0.007,4.81372 -0.0415,0.12446 -1.22407,0.0762 -1.23106,0.0278 -0.0277,-0.49086 -0.0483,-4.16348 0.007,-4.82748 0.2212,-0.0832 1.18936,-0.0553 1.23085,-0.014 m 0.6913,4.35715 c -0.0277,-0.13843 0.31115,-1.02362 0.38735,-0.98891 0.15896,0.0969 0.67776,0.47054 1.26577,0.47054 0.40809,0 0.67098,-0.12467 0.67098,-0.42186 0,-0.22119 -0.16616,-0.38734 -0.87842,-0.53255 -0.90588,-0.18669 -1.41092,-0.60853 -1.41092,-1.51468 0,-0.78846 0.64326,-1.4732 1.81208,-1.4732 0.73322,0 1.34874,0.19388 1.61841,0.40809 0.0902,0.0692 -0.32491,0.96838 -0.39413,0.96139 -0.10393,-0.0482 -0.60875,-0.30437 -1.19655,-0.30437 -0.41487,0 -0.60875,0.16616 -0.60875,0.39433 0,0.21421 0.11768,0.32491 0.78846,0.4771 0.89196,0.20743 1.58369,0.56705 1.58369,1.51469 0,0.7332 -0.5878,1.50071 -1.93654,1.50071 -0.7747,-2.1e-4 -1.45246,-0.30438 -1.70138,-0.49128 m 6.52145,-0.56705 c 0.56028,0 0.94065,-0.29718 1.09262,-0.4081 0.15918,0.11071 0.46355,0.67077 0.57404,0.90594 -0.29739,0.33887 -0.99589,0.67098 -1.79133,0.67098 -1.6184,0 -2.37236,-1.15485 -2.37236,-2.60054 0,-1.39022 0.98213,-2.4621 2.55206,-2.4621 0.79545,0 1.36928,0.24892 1.58369,0.45656 0,0.13822 -0.2904,0.88519 -0.46333,1.0306 -0.24892,-0.14541 -0.67078,-0.3321 -1.1066,-0.3321 -0.71226,0 -1.26555,0.56727 -1.26555,1.35573 2.1e-4,0.9889 0.60875,1.38303 1.19676,1.38303 M 139.3958,208.8629 c 0.0868,0.13208 0.13801,0.28956 0.13801,0.45931 a 0.8382,0.8382 0 1 1 -0.8382,-0.8382 c 0.14795,0 0.28469,0.0417 0.40534,0.1088 l 0.704,-0.704 c -0.30353,-0.2358 -0.69257,-0.36152 -1.11972,-0.36152 -1.07886,0 -1.74307,0.85068 -1.74307,1.71534 0,1.12713 0.7747,1.8051 1.75683,1.8051 1.1066,-0.0207 1.74985,-0.82318 1.74985,-1.71536 0,-0.47328 -0.1361,-0.86317 -0.36343,-1.15887 z m -5.23346,-1.23401 -3.3456,3.34539 c 0.25103,0.35411 0.20701,0.85682 -0.1342,1.15717 -0.33337,0.29338 -0.85577,0.28173 -1.17623,-0.0256 a 0.87270168,0.87270168 0 0 1 -0.0133,-1.24332 c 0.30353,-0.30354 0.77936,-0.33402 1.11866,-0.0934 l 3.47366,-3.47344 c -0.52493,-1.93294 -2.29108,-3.35471 -4.39018,-3.35471 -2.3006,0 -4.20116,1.70773 -4.50596,3.92451 l 1.02849,-1.02848 a 0.38629166,0.38629166 0 0 1 0.27305,-0.11324 h 1.20078 c 0.0699,-0.41 0.42799,-0.72517 0.85704,-0.72517 0.34396,0 0.66802,0.19621 0.7982,0.51456 0.25506,0.62336 -0.20468,1.22555 -0.7982,1.22555 -0.42905,0 -0.78719,-0.31496 -0.85704,-0.72518 h -1.13833 a 0.24765,0.24765 0 0 0 -0.17484,0.0724 l -1.22851,1.22873 c -0.002,0.0589 -0.005,0.11705 -0.005,0.17611 0,0.6968 0.15705,1.35699 0.4373,1.94733 l 0.92202,-0.92202 c -0.24067,-0.33931 -0.21019,-0.81513 0.0931,-1.11866 a 0.87249,0.87249 0 0 1 1.23042,0 0.87270168,0.87270168 0 0 1 0,1.23063 c -0.30332,0.30332 -0.77936,0.33401 -1.11866,0.0931 l -0.987,0.987 a 4.5684017,4.5684017 0 0 0 1.10215,1.3098 l 3.91773,-3.91774 c 0.0436,-0.0436 0.0682,-0.10308 0.0682,-0.16489 v -1.52569 c -0.42841,-0.0728 -0.75353,-0.46101 -0.72305,-0.91567 0.0292,-0.43942 0.40111,-0.79756 0.84159,-0.8109 a 0.87249,0.87249 0 0 1 0.89662,0.86974 c 0,0.42926 -0.31496,0.7874 -0.72517,0.85704 v 1.57818 c 0,0.1052 -0.0417,0.20617 -0.116,0.28047 l -3.92726,3.92705 a 4.5247983,4.5247983 0 0 0 2.63779,0.84518 c 2.5127,0 4.54999,-2.03708 4.54999,-4.54998 a 4.5698834,4.5698834 0 0 0 -0.0828,-0.86191" style="fill:#fff;stroke-width:.21166666"/><path id="path1235-4" d="m 179.91667,276.09791 -1.32292,2.11667" style="fill:none;fill-rule:evenodd;stroke:#000;stroke-width:.26458332px;stroke-linecap:round;stroke-linejoin:round;stroke-opacity:1"/><text id="text959-2-1-0-3-4" x="176.477" y="280.331" style="font-style:normal;font-weight:400;font-size:3.96875px;line-height:125%;font-family:sans-serif;letter-spacing:0;word-spacing:0;fill:#000;fill-opacity:1;stroke:none;stroke-width:.26458332px;stroke-linecap:butt;stroke-linejoin:miter;stroke-opacity:1" xml:space="preserve"><tspan style="font-size:2.11666679px;stroke-width:.26458332px" id="tspan957-9-8-2-7-7" x="176.477" y="280.331">32</tspan></text><path id="path1235-6" d="m 179.78437,271.86458 -1.32292,2.11667" style="fill:none;fill-rule:evenodd;stroke:#000;stroke-width:.26458332px;stroke-linecap:round;stroke-linejoin:round;stroke-opacity:1"/><text id="text959-2-1-0-3-3" x="176.477" y="272.394" style="font-style:normal;font-weight:400;font-size:3.96875px;line-height:125%;font-family:sans-serif;letter-spacing:0;word-spacing:0;fill:#000;fill-opacity:1;stroke:none;stroke-width:.26458332px;stroke-linecap:butt;stroke-linejoin:miter;stroke-opacity:1" xml:space="preserve"><tspan style="font-size:2.11666679px;stroke-width:.26458332px" id="tspan957-9-8-2-7-1" x="176.477" y="272.394">32</tspan></text><text id="text959-2-1-0-0-7-4-6-2-3" x="106.362" y="236.41" style="font-style:normal;font-weight:400;font-size:3.96875px;line-height:125%;font-family:sans-serif;letter-spacing:0;word-spacing:0;fill:#000;fill-opacity:1;stroke:none;stroke-width:.26458332px;stroke-linecap:butt;stroke-linejoin:miter;stroke-opacity:1" xml:space="preserve"><tspan style="font-size:2.11666727px;stroke-width:.26458332px" id="tspan957-9-8-2-6-4-4-88-0-6" x="106.362" y="236.41">IM</tspan></text><path id="path1188-2-5" d="M 73.025001,252.28543 H 66.145835 V 213.65626 H -5.2916653" style="fill:none;fill-rule:evenodd;stroke:#000;stroke-width:.26499999;stroke-linecap:round;stroke-linejoin:miter;stroke-miterlimit:4;stroke-dasharray:none;stroke-opacity:1"/><path id="path1152-6-9-7" d="m 73.025001,251.49168 10e-7,1.5875 h 2.116666 l 0.79375,-0.79375 -0.79375,-0.79375 z" style="fill:#fff;fill-opacity:1;fill-rule:evenodd;stroke:#000;stroke-width:.39687499;stroke-linecap:round;stroke-linejoin:round;stroke-miterlimit:4;stroke-dasharray:none;stroke-opacity:1;paint-order:stroke fill markers"/><text id="text959-2-1-9" x="30.427" y="212.333" style="font-style:normal;font-weight:400;font-size:3.96875px;line-height:125%;font-family:sans-serif;letter-spacing:0;word-spacing:0;fill:#000;fill-opacity:1;stroke:none;stroke-width:.26458332px;stroke-linecap:butt;stroke-linejoin:miter;stroke-opacity:1" xml:space="preserve"><tspan style="font-size:2.82222223px;stroke-width:.26458332px" id="tspan957-9-8-12" x="30.427" y="212.333">debug_req_i</tspan></text><text id="text959-2-1-9-3" x="30.427" y="279.802" style="font-style:normal;font-weight:400;font-size:3.96875px;line-height:125%;font-family:sans-serif;letter-spacing:0;word-spacing:0;fill:#000;fill-opacity:1;stroke:none;stroke-width:.26458332px;stroke-linecap:butt;stroke-linejoin:miter;stroke-opacity:1" xml:space="preserve"><tspan style="font-size:2.82222223px;stroke-width:.26458332px" id="tspan957-9-8-12-6" x="30.427" y="279.802">jump_target_ex</tspan></text></g></g></svg>