<svg xmlns="http://www.w3.org/2000/svg" xmlns:svg="http://www.w3.org/2000/svg" xmlns:xlink="http://www.w3.org/1999/xlink" id="svg8" width="295.75" height="310" version="1.1" viewBox="0 0 78.251 82.021"><defs id="defs2"><linearGradient id="linearGradient4774"><stop style="stop-color:#e53651;stop-opacity:1" id="stop4770" offset="0"/><stop style="stop-color:#e53651;stop-opacity:0" id="stop4772" offset="1"/></linearGradient><marker id="SquareM" orient="auto" refX="0" refY="0" style="overflow:visible"><path id="path4711" d="M -5,-5 V 5 H 5 V -5 Z" style="fill:#0046ff;fill-opacity:1;fill-rule:evenodd;stroke:#0046ff;stroke-width:1.00000003pt;stroke-opacity:1" transform="scale(0.4)"/></marker><marker id="DotM" orient="auto" refX="0" refY="0" style="overflow:visible"><path id="path4702" d="m -2.5,-1 c 0,2.76 -2.24,5 -5,5 -2.76,0 -5,-2.24 -5,-5 0,-2.76 2.24,-5 5,-5 2.76,0 5,2.24 5,5 z" style="fill:#0046ff;fill-opacity:1;fill-rule:evenodd;stroke:#0046ff;stroke-width:1.00000003pt;stroke-opacity:1" transform="matrix(0.4,0,0,0.4,2.96,0.4)"/></marker><marker id="DotL" orient="auto" refX="0" refY="0" style="overflow:visible"><path id="path4699" d="m -2.5,-1 c 0,2.76 -2.24,5 -5,5 -2.76,0 -5,-2.24 -5,-5 0,-2.76 2.24,-5 5,-5 2.76,0 5,2.24 5,5 z" style="fill:#000;fill-opacity:1;fill-rule:evenodd;stroke:#000;stroke-width:1.00000003pt;stroke-opacity:1" transform="matrix(0.8,0,0,0.8,5.92,0.8)"/></marker><marker id="DotM-5" orient="auto" refX="0" refY="0" style="overflow:visible"><path id="path4702-6" d="m -2.5,-1 c 0,2.76 -2.24,5 -5,5 -2.76,0 -5,-2.24 -5,-5 0,-2.76 2.24,-5 5,-5 2.76,0 5,2.24 5,5 z" style="fill:#0046ff;fill-opacity:1;fill-rule:evenodd;stroke:#0046ff;stroke-width:1.00000003pt;stroke-opacity:1" transform="matrix(0.4,0,0,0.4,2.96,0.4)"/></marker><marker id="SquareM-2" orient="auto" refX="0" refY="0" style="overflow:visible"><path id="path4711-9" d="M -5,-5 V 5 H 5 V -5 Z" style="fill:#0046ff;fill-opacity:1;fill-rule:evenodd;stroke:#0046ff;stroke-width:1.00000003pt;stroke-opacity:1" transform="scale(0.4)"/></marker><marker id="DotM-5-2" orient="auto" refX="0" refY="0" style="overflow:visible"><path id="path4702-6-7" d="m -2.5,-1 c 0,2.76 -2.24,5 -5,5 -2.76,0 -5,-2.24 -5,-5 0,-2.76 2.24,-5 5,-5 2.76,0 5,2.24 5,5 z" style="fill:#0046ff;fill-opacity:1;fill-rule:evenodd;stroke:#0046ff;stroke-width:1.00000003pt;stroke-opacity:1" transform="matrix(0.4,0,0,0.4,2.96,0.4)"/></marker><marker id="SquareM-2-0" orient="auto" refX="0" refY="0" style="overflow:visible"><path id="path4711-9-9" d="M -5,-5 V 5 H 5 V -5 Z" style="fill:#0046ff;fill-opacity:1;fill-rule:evenodd;stroke:#0046ff;stroke-width:1.00000003pt;stroke-opacity:1" transform="scale(0.4)"/></marker><marker id="DotM-2" orient="auto" refX="0" refY="0" style="overflow:visible"><path id="path4702-0" d="m -2.5,-1 c 0,2.76 -2.24,5 -5,5 -2.76,0 -5,-2.24 -5,-5 0,-2.76 2.24,-5 5,-5 2.76,0 5,2.24 5,5 z" style="fill:#000;fill-opacity:1;fill-rule:evenodd;stroke:#000;stroke-width:1.00000003pt;stroke-opacity:1" transform="matrix(0.4,0,0,0.4,2.96,0.4)"/></marker><marker id="SquareM-23" orient="auto" refX="0" refY="0" style="overflow:visible"><path id="path4711-7" d="M -5,-5 V 5 H 5 V -5 Z" style="fill:#000;fill-opacity:1;fill-rule:evenodd;stroke:#000;stroke-width:1.00000003pt;stroke-opacity:1" transform="scale(0.4)"/></marker><linearGradient id="linearGradient4776" x1="52.917" x2="173.302" y1="212.333" y2="212.333" gradientUnits="userSpaceOnUse" xlink:href="#linearGradient4774"/><clipPath id="clipPath6338" clipPathUnits="userSpaceOnUse"><rect style="fill:none;stroke:#000;stroke-width:.74811929;stroke-miterlimit:4;stroke-dasharray:none;stroke-opacity:1" id="rect6340" width="17.198" height="15.875" x="186.531" y="225.563"/></clipPath><clipPath id="clipPath6444" clipPathUnits="userSpaceOnUse"><rect style="fill:none;stroke:#000;stroke-width:.1;stroke-miterlimit:4;stroke-dasharray:none;stroke-opacity:1" id="rect6446" width="100.542" height="96.573" x="-18.521" y="197.781"/></clipPath><clipPath id="clipPath4160" clipPathUnits="userSpaceOnUse"><rect style="fill:#000;fill-opacity:1;stroke:#000;stroke-width:.49247217;stroke-miterlimit:10;stroke-dasharray:none;stroke-opacity:1" id="rect4162" width="103.188" height="113.771" x="-10.583" y="191.167"/></clipPath><linearGradient id="linearGradient4164" x1="52.917" x2="173.302" y1="212.333" y2="212.333" gradientUnits="userSpaceOnUse" xlink:href="#linearGradient4774"/></defs><metadata id="metadata5"/><g id="layer1" transform="translate(-13.229165,-201.75)"><g id="g4156" clip-path="url(#clipPath4160)"><rect id="rect4554-36-6-2" width="112.448" height="82.021" x="51.594" y="201.75" clip-path="none" ry="1.323" style="fill:url(#linearGradient4164);fill-opacity:1;stroke:none;stroke-width:.52916682;stroke-linecap:round;stroke-linejoin:round;stroke-miterlimit:10;stroke-dasharray:none;stroke-dashoffset:0;stroke-opacity:1"/><rect id="rect4554-36-6" width="39.688" height="82.021" x="13.229" y="201.75" clip-path="none" ry="1.323" style="fill:#e53651;fill-opacity:1;stroke:none;stroke-width:.52916682;stroke-linecap:round;stroke-linejoin:round;stroke-miterlimit:10;stroke-dasharray:none;stroke-dashoffset:0;stroke-opacity:1"/><rect id="rect4554-36-7-5-6-2-3" width="33.073" height="22.49" x="50.271" y="229.531" clip-path="none" ry="0" style="fill:#ffe0e5;fill-opacity:1;stroke:#6c0e1d;stroke-width:.3310166;stroke-linecap:round;stroke-linejoin:round;stroke-miterlimit:10;stroke-dasharray:none;stroke-dashoffset:0;stroke-opacity:1"/><rect id="rect4554-36-7-5-6-7" width="25.135" height="19.844" x="19.844" y="240.115" clip-path="none" ry="0" style="fill:#ffe0e5;fill-opacity:1;stroke:#6c0e1d;stroke-width:.3310166;stroke-linecap:round;stroke-linejoin:round;stroke-miterlimit:10;stroke-dasharray:none;stroke-dashoffset:0;stroke-opacity:1"/><rect id="rect4554-36-7-5-6" width="25.135" height="23.812" x="19.844" y="212.333" clip-path="none" ry="0" style="fill:#ffe0e5;fill-opacity:1;stroke:#6c0e1d;stroke-width:.3310166;stroke-linecap:round;stroke-linejoin:round;stroke-miterlimit:10;stroke-dasharray:none;stroke-dashoffset:0;stroke-opacity:1"/><text id="text959-2" x="21.167" y="216.302" clip-path="none" style="font-style:normal;font-weight:400;font-size:3.96875px;line-height:125%;font-family:sans-serif;letter-spacing:0;word-spacing:0;fill:#000;fill-opacity:1;stroke:none;stroke-width:.26458332px;stroke-linecap:butt;stroke-linejoin:miter;stroke-opacity:1" xml:space="preserve"><tspan style="stroke-width:.26458332px" id="tspan957-9" x="21.167" y="216.302">Fill Buffers</tspan></text><rect id="rect4554-36-7-5-6-6" width="10.822" height="10.583" x="21.457" y="219.213" clip-path="none" ry="1.323" style="fill:#fff;fill-opacity:1;stroke:#000;stroke-width:.5291667;stroke-linecap:round;stroke-linejoin:round;stroke-miterlimit:10;stroke-dasharray:none;stroke-dashoffset:0;stroke-opacity:1"/><path id="path1152-6" d="m 88.370834,262.07501 10e-7,1.5875 h 2.116666 l 0.79375,-0.79375 -0.79375,-0.79375 z" clip-path="none" style="fill:#fff;fill-opacity:1;fill-rule:evenodd;stroke:#000;stroke-width:.39687499;stroke-linecap:round;stroke-linejoin:round;stroke-miterlimit:4;stroke-dasharray:none;stroke-opacity:1;paint-order:stroke fill markers"/><text id="text959-2-1" x="45.773" y="225.033" clip-path="none" style="font-style:normal;font-weight:400;font-size:3.96875px;line-height:125%;font-family:sans-serif;letter-spacing:0;word-spacing:0;fill:#000;fill-opacity:1;stroke:none;stroke-width:.26458332px;stroke-linecap:butt;stroke-linejoin:miter;stroke-opacity:1" xml:space="preserve"><tspan style="font-size:2.82222223px;stroke-width:.26458332px" id="tspan957-9-8" x="45.773" y="225.033">64</tspan></text><path id="path1152-7" d="m 77.258335,215.24376 h 1.5875 v 2.11667 l -0.79375,0.79375 -0.79375,-0.79375 z" clip-path="none" style="fill:#fff;fill-opacity:1;fill-rule:evenodd;stroke:#000;stroke-width:.39687499;stroke-linecap:round;stroke-linejoin:round;stroke-miterlimit:4;stroke-dasharray:none;stroke-opacity:1;paint-order:stroke fill markers"/><text id="text959-2-1-0" x="79.375" y="217.625" clip-path="none" style="font-style:normal;font-weight:400;font-size:3.96875px;line-height:125%;font-family:sans-serif;letter-spacing:0;word-spacing:0;fill:#000;fill-opacity:1;stroke:none;stroke-width:.26458332px;stroke-linecap:butt;stroke-linejoin:miter;stroke-opacity:1" xml:space="preserve"><tspan style="font-size:2.82222223px;stroke-width:.26458332px" id="tspan957-9-8-2" x="79.375" y="217.625">rdata_i</tspan></text><path id="path1294" d="m 28.574999,229.79576 1.322917,-3.175 1.322917,3.175 z" clip-path="none" style="fill:none;fill-rule:evenodd;stroke:#000;stroke-width:.5291667;stroke-linecap:butt;stroke-linejoin:round;stroke-miterlimit:4;stroke-dasharray:none;stroke-opacity:1"/><rect id="rect4554-36-7-5-6-6-2" width="13.229" height="9.26" x="21.167" y="245.406" clip-path="none" ry="1.323" style="fill:#fff;fill-opacity:1;stroke:#000;stroke-width:.52916676;stroke-linecap:round;stroke-linejoin:round;stroke-miterlimit:10;stroke-dasharray:none;stroke-dashoffset:0;stroke-opacity:1"/><text id="text2070" x="16.404" y="209.688" clip-path="none" style="font-style:normal;font-weight:400;font-size:3.96875px;line-height:125%;font-family:sans-serif;letter-spacing:0;word-spacing:0;fill:#000;fill-opacity:1;stroke:none;stroke-width:.26458332px;stroke-linecap:butt;stroke-linejoin:miter;stroke-opacity:1" xml:space="preserve"><tspan style="font-style:normal;font-variant:normal;font-weight:700;font-stretch:normal;font-size:6.3499999px;font-family:sans-serif;-inkscape-font-specification:'sans-serif Bold';fill:#fff;fill-opacity:1;stroke-width:.26458332px" id="tspan2068" x="16.404" y="209.688">I-Cache Multiplex</tspan></text><path id="path2580" d="m 26.511665,274.51452 c 0.04847,0.083 -0.04826,4.72377 -0.08297,5.25611 0,0 -0.933661,0.007 -0.988906,-0.0275 -0.05525,-0.0417 -0.05525,-5.11111 0.04847,-5.20086 0.09652,-0.09 1.002666,-0.0762 1.023409,-0.0278 m 5.262457,1.71513 c 0.08297,0 0.581024,2.27563 0.581024,2.27563 0.172932,-0.53975 0.532554,-1.3625 0.608542,-1.6256 -0.03429,-0.11748 -0.158962,-0.44958 -0.158962,-0.52536 0.06922,-0.0692 0.871432,-0.1524 0.954405,-0.10392 0.06922,0.0417 0.601557,2.13021 0.636271,2.24092 0.04149,-0.11071 0.663786,-2.26844 0.6985,-2.27543 0.0417,-0.006 1.009861,0.20067 1.002876,0.24215 -0.09673,0.43561 -1.092624,3.27131 -1.127336,3.30602 -0.08996,0.076 -1.086062,-0.014 -1.092836,-0.0345 -0.007,-0.006 -0.248708,-0.72623 -0.470323,-1.61841 -0.297392,0.87165 -0.622512,1.63217 -0.63627,1.65312 -0.09017,0.076 -1.08585,-0.014 -1.092835,-0.0279 -0.007,-0.0135 -0.912918,-3.09139 -0.905933,-3.30601 0,-0.0487 0.913129,-0.20067 1.002877,-0.20067 m 4.806103,3.50647 c -0.0345,-0.32491 -0.0068,-4.32943 0.05546,-4.80652 0.352848,-0.0417 1.09982,-0.0762 1.639358,-0.0762 1.327785,0 2.088515,0.52536 2.088515,1.68063 0,0.71925 -0.338879,1.14109 -0.878205,1.3625 0.525569,0.63627 1.065106,1.47997 1.044152,1.5077 -0.07599,0.10372 -0.871432,0.43561 -1.078865,0.42884 -0.02074,0 -0.622512,-0.97515 -1.196552,-1.72932 -0.02773,0.007 -0.06223,0.007 -0.08996,0.007 -0.117687,0 -0.283634,-0.007 -0.366607,-0.0138 -0.007,0.4773 -0.007,1.41773 -0.0345,1.6184 -0.06922,0.0278 -1.175809,0.0622 -1.182793,0.0207 m 1.784352,-2.57979 c 0.44958,0 0.760942,-0.17992 0.760942,-0.59479 0,-0.38735 -0.20066,-0.63627 -0.802217,-0.63627 -0.131445,0 -0.318347,0.006 -0.456565,0.0207 0.007,0.18669 0,0.94763 0,1.18957 0.131233,0.014 0.338667,0.0207 0.49784,0.0207 m 4.02463,-2.25467 c 0.04826,0.29061 0.0417,4.37112 -0.0068,4.81372 -0.04149,0.12446 -1.224068,0.0762 -1.231053,0.0278 -0.02773,-0.49086 -0.04826,-4.16348 0.007,-4.82748 0.221191,-0.0832 1.189355,-0.0553 1.230842,-0.014 m 0.691303,4.35715 c -0.02773,-0.13843 0.31115,-1.02362 0.38735,-0.98891 0.158962,0.0969 0.677756,0.47054 1.265767,0.47054 0.408093,0 0.670983,-0.12467 0.670983,-0.42186 0,-0.22119 -0.166158,-0.38734 -0.878417,-0.53255 -0.905881,-0.18669 -1.410918,-0.60853 -1.410918,-1.51468 0,-0.78846 0.643255,-1.4732 1.812078,-1.4732 0.733213,0 1.34874,0.19388 1.618403,0.40809 0.09017,0.0692 -0.324908,0.96838 -0.394123,0.96139 -0.103929,-0.0482 -0.608753,-0.30437 -1.196552,-0.30437 -0.414866,0 -0.608753,0.16616 -0.608753,0.39433 0,0.21421 0.117687,0.32491 0.788458,0.4771 0.891963,0.20743 1.58369,0.56705 1.58369,1.51469 0,0.7332 -0.587798,1.50071 -1.936538,1.50071 -0.7747,-2.1e-4 -1.452457,-0.30438 -1.701377,-0.49128 m 6.521451,-0.56705 c 0.560281,0 0.940646,-0.29718 1.092623,-0.4081 0.159173,0.11071 0.463549,0.67077 0.57404,0.90594 -0.297392,0.33887 -0.995892,0.67098 -1.791335,0.67098 -1.618404,0 -2.37236,-1.15485 -2.37236,-2.60054 0,-1.39022 0.982133,-2.4621 2.552064,-2.4621 0.795444,0 1.369272,0.24892 1.583691,0.45656 0,0.13822 -0.290407,0.88519 -0.463339,1.0306 -0.24892,-0.14541 -0.670772,-0.3321 -1.106593,-0.3321 -0.712259,0 -1.265555,0.56727 -1.265555,1.35573 2.12e-4,0.9889 0.608753,1.38303 1.196764,1.38303 m -20.118542,-1.07757 c 0.08678,0.13208 0.138006,0.28956 0.138006,0.45931 a 0.8382,0.8382 0 1 1 -0.8382,-0.8382 c 0.147956,0 0.284692,0.0417 0.405342,0.1088 l 0.704003,-0.704 c -0.303529,-0.2358 -0.692573,-0.36152 -1.119716,-0.36152 -1.078865,0 -1.743075,0.85068 -1.743075,1.71534 0,1.12713 0.7747,1.8051 1.756834,1.8051 1.106592,-0.0207 1.749848,-0.82318 1.749848,-1.71536 0,-0.47328 -0.136102,-0.86317 -0.363432,-1.15887 z m -5.233458,-1.23401 -3.345604,3.34539 c 0.251037,0.35411 0.20701,0.85682 -0.134197,1.15717 -0.333375,0.29338 -0.855767,0.28173 -1.176231,-0.0256 a 0.87270168,0.87270168 0 0 1 -0.01334,-1.24332 c 0.303529,-0.30354 0.779356,-0.33402 1.118658,-0.0934 l 3.473662,-3.47344 c -0.524934,-1.93294 -2.29108,-3.35471 -4.390179,-3.35471 -2.300605,0 -4.20116,1.70773 -4.50596,3.92451 l 1.028488,-1.02848 a 0.38629166,0.38629166 0 0 1 0.273051,-0.11324 h 1.200784 c 0.06985,-0.41 0.42799,-0.72517 0.857039,-0.72517 0.343958,0 0.66802,0.19621 0.798195,0.51456 0.255058,0.62336 -0.204682,1.22555 -0.798195,1.22555 -0.429049,0 -0.787189,-0.31496 -0.857039,-0.72518 h -1.138337 a 0.24765,0.24765 0 0 0 -0.174837,0.0724 l -1.228514,1.22873 c -0.0021,0.0589 -0.0045,0.11705 -0.0045,0.17611 0,0.6968 0.157057,1.35699 0.437304,1.94733 l 0.92202,-0.92202 c -0.240665,-0.33931 -0.210185,-0.81513 0.09313,-1.11866 a 0.87249,0.87249 0 0 1 1.230419,0 0.87270168,0.87270168 0 0 1 0,1.23063 c -0.303319,0.30332 -0.779357,0.33401 -1.118659,0.0931 l -0.987001,0.987 a 4.5684017,4.5684017 0 0 0 1.102148,1.3098 l 3.917738,-3.91774 c 0.0436,-0.0436 0.06816,-0.10308 0.06816,-0.16489 v -1.52569 c -0.428414,-0.0728 -0.753534,-0.46101 -0.723054,-0.91567 0.02921,-0.43942 0.401109,-0.79756 0.841588,-0.8109 a 0.87249,0.87249 0 0 1 0.89662,0.86974 c 0,0.42926 -0.31496,0.7874 -0.725171,0.85704 v 1.57818 c 0,0.1052 -0.0417,0.20617 -0.115993,0.28047 l -3.927264,3.92705 a 4.5247983,4.5247983 0 0 0 2.637791,0.84518 c 2.512694,0 4.549986,-2.03708 4.549986,-4.54998 a 4.5698834,4.5698834 0 0 0 -0.08276,-0.86191" clip-path="none" style="fill:#fff;stroke-width:.21166666"/><rect id="rect4554-36" width="150.813" height="82.021" x="13.229" y="201.75" clip-path="none" ry="1.323" style="fill:none;fill-opacity:1;stroke:#6c0e1d;stroke-width:.52899998;stroke-linecap:round;stroke-linejoin:round;stroke-miterlimit:10;stroke-dasharray:none;stroke-dashoffset:0;stroke-opacity:1"/><text id="text959-2-8" x="21.167" y="244.348" clip-path="none" style="font-style:normal;font-weight:400;font-size:3.96875px;line-height:125%;font-family:sans-serif;letter-spacing:0;word-spacing:0;fill:#000;fill-opacity:1;stroke:none;stroke-width:.26458332px;stroke-linecap:butt;stroke-linejoin:miter;stroke-opacity:1" xml:space="preserve"><tspan style="stroke-width:.26458332px" id="tspan957-9-4" x="21.167" y="244.348">I$</tspan></text><path style="fill:#ffe0e5;fill-opacity:1;fill-rule:evenodd;stroke:#000;stroke-width:.39687499;stroke-linecap:round;stroke-linejoin:round;stroke-miterlimit:4;stroke-dasharray:none;stroke-opacity:1" id="path1660" d="m 39.422913,220.27084 v 13.22917 l 3.96875,-2.11667 v -8.99583 l -3.96875,-2.11667"/><rect id="rect4554-36-7-5-6-6-7" width="10.822" height="10.583" x="22.78" y="221.065" clip-path="none" ry="1.323" style="fill:#fff;fill-opacity:1;stroke:#000;stroke-width:.52916676;stroke-linecap:round;stroke-linejoin:round;stroke-miterlimit:10;stroke-dasharray:none;stroke-dashoffset:0;stroke-opacity:1"/><path id="path1294-4" d="m 29.897915,231.64775 1.322917,-3.175 1.322917,3.175 z" clip-path="none" style="fill:none;fill-rule:evenodd;stroke:#000;stroke-width:.52916676;stroke-linecap:butt;stroke-linejoin:round;stroke-miterlimit:4;stroke-dasharray:none;stroke-opacity:1"/><rect id="rect4554-36-7-5-6-6-7-4" width="10.822" height="10.583" x="24.103" y="222.653" clip-path="none" ry="1.323" style="fill:#fff;fill-opacity:1;stroke:#000;stroke-width:.52916682;stroke-linecap:round;stroke-linejoin:round;stroke-miterlimit:10;stroke-dasharray:none;stroke-dashoffset:0;stroke-opacity:1"/><path id="path1294-4-3" d="m 31.22083,233.23521 1.322916,-3.175 1.322917,3.175 z" clip-path="none" style="fill:none;fill-rule:evenodd;stroke:#000;stroke-width:.52916682;stroke-linecap:butt;stroke-linejoin:round;stroke-miterlimit:4;stroke-dasharray:none;stroke-opacity:1"/><rect id="rect4554-36-7-5-6-6-7-4-0" width="10.558" height="10.583" x="25.69" y="224.505" clip-path="none" ry="1.323" style="fill:#fff;fill-opacity:1;stroke:#000;stroke-width:.52916682;stroke-linecap:round;stroke-linejoin:round;stroke-miterlimit:10;stroke-dasharray:none;stroke-dashoffset:0;stroke-opacity:1"/><path id="path1294-4-3-7" d="m 29.633327,235.08727 1.322916,-3.175 1.322917,3.175 z" clip-path="none" style="fill:none;fill-rule:evenodd;stroke:#000;stroke-width:.52916682;stroke-linecap:butt;stroke-linejoin:round;stroke-miterlimit:4;stroke-dasharray:none;stroke-opacity:1"/><path style="fill:none;stroke:#000;stroke-width:.26458332px;stroke-linecap:butt;stroke-linejoin:miter;stroke-opacity:1" id="path8429" d="m 36.247917,229.53126 h 3.175"/><path style="fill:none;stroke:#000;stroke-width:.26458332px;stroke-linecap:butt;stroke-linejoin:miter;stroke-opacity:1" id="path8433" d="m 36.247917,227.67917 h 3.175"/><path style="fill:none;stroke:#000;stroke-width:.26458332px;stroke-linecap:butt;stroke-linejoin:miter;stroke-opacity:1" id="path8435" d="m 36.247917,225.82709 h 3.175"/><path style="fill:none;stroke:#000;stroke-width:.26458332px;stroke-linecap:butt;stroke-linejoin:miter;stroke-opacity:1" id="path8437" d="m 34.925,223.97501 h 4.497917"/><rect id="rect4554-36-7-5-6-6-2-6" width="13.229" height="9.26" x="23.813" y="247.788" clip-path="none" ry="1.323" style="fill:#fff;fill-opacity:1;stroke:#000;stroke-width:.52916682;stroke-linecap:round;stroke-linejoin:round;stroke-miterlimit:10;stroke-dasharray:none;stroke-dashoffset:0;stroke-opacity:1"/><text id="text959-2-0-8" x="25.135" y="251.227" clip-path="none" style="font-style:normal;font-weight:400;font-size:3.96875px;line-height:125%;font-family:sans-serif;letter-spacing:0;word-spacing:0;fill:#000;fill-opacity:1;stroke:none;stroke-width:.26458332px;stroke-linecap:butt;stroke-linejoin:miter;stroke-opacity:1" xml:space="preserve"><tspan id="tspan1150-7" style="stroke-width:.26458332px" x="25.135" y="251.227">Data</tspan><tspan style="stroke-width:.26458332px" id="tspan8439" x="25.135" y="256.188">RAMs</tspan></text><path style="fill:#ffe0e5;fill-opacity:1;fill-rule:evenodd;stroke:#000;stroke-width:.39687499;stroke-linecap:round;stroke-linejoin:round;stroke-miterlimit:4;stroke-dasharray:none;stroke-opacity:1" id="path1660-3" d="m 39.556458,244.34934 v 13.22917 l 3.96875,-2.11667 v -8.99583 l -3.96875,-2.11667"/><path style="fill:none;stroke:#000;stroke-width:.26458332px;stroke-linecap:butt;stroke-linejoin:miter;stroke-opacity:1" id="path8498" d="m 36.777083,252.54998 h 2.910418"/><path style="fill:none;stroke:#000;stroke-width:.26458332px;stroke-linecap:butt;stroke-linejoin:miter;stroke-opacity:1" id="path8500" d="m 37.041666,249.37497 h 2.645835"/><path style="fill:#ffe0e5;fill-opacity:0;fill-rule:evenodd;stroke:#000;stroke-width:.39687499;stroke-linecap:round;stroke-linejoin:round;stroke-miterlimit:4;stroke-dasharray:none;stroke-opacity:1" id="path1660-3-1" d="m 51.593751,232.17709 v 13.22917 l 3.96875,-2.11667 v -8.99583 l -3.96875,-2.11667"/><path style="fill:none;stroke:#000;stroke-width:.26458332px;stroke-linecap:butt;stroke-linejoin:miter;stroke-opacity:1" id="path8517" d="m 43.391661,226.88542 h 5.820833 v 9.26042 h 2.381257"/><path style="fill:none;stroke:#000;stroke-width:.26458332px;stroke-linecap:butt;stroke-linejoin:miter;stroke-opacity:1" id="path8519" d="m 43.391665,251.22709 h 5.556253 v -9.78958 h 2.645833"/><path style="fill:#ffe0e5;fill-opacity:0;fill-rule:evenodd;stroke:#000;stroke-width:.39687499;stroke-linecap:round;stroke-linejoin:round;stroke-miterlimit:4;stroke-dasharray:none;stroke-opacity:1" id="path1660-3-1-4" d="m 60.193958,232.17851 v 13.22917 l 3.96875,-2.11667 v -8.99583 l -3.96875,-2.11667"/><path style="fill:#ffe0e5;fill-opacity:0;fill-rule:evenodd;stroke:#000;stroke-width:.39687499;stroke-linecap:round;stroke-linejoin:round;stroke-miterlimit:4;stroke-dasharray:none;stroke-opacity:1" id="path1660-3-1-4-9" d="m 82.020838,241.43751 h -13.22917 l 2.11667,3.96875 h 8.99583 l 2.11667,-3.96875"/><path style="fill:none;stroke:#000;stroke-width:.26458332px;stroke-linecap:butt;stroke-linejoin:miter;stroke-opacity:1" id="path8555" d="m 78.052083,218.15418 v 23.28333"/><path style="fill:none;stroke:#000;stroke-width:.26458332px;stroke-linecap:butt;stroke-linejoin:miter;stroke-opacity:1" id="path8557" d="m 64.029167,238.79167 h 8.73125 v 2.64584"/><path style="fill:none;stroke:#000;stroke-width:.26458332px;stroke-linecap:butt;stroke-linejoin:miter;stroke-opacity:1" id="path8559" d="M 55.5625,238.79167 H 60.325"/><rect id="rect4554-36-7-5-6-2" width="15.875" height="17.198" x="51.594" y="254.667" clip-path="none" ry="0" style="fill:#ffe0e5;fill-opacity:1;stroke:#6c0e1d;stroke-width:.3310166;stroke-linecap:round;stroke-linejoin:round;stroke-miterlimit:10;stroke-dasharray:none;stroke-dashoffset:0;stroke-opacity:1"/><rect id="rect4554-36-7-5-6-6-7-4-0-0" width="10.558" height="6.615" x="54.265" y="263.927" clip-path="none" ry="1.323" style="fill:#fff;fill-opacity:1;stroke:#000;stroke-width:.52916682;stroke-linecap:round;stroke-linejoin:round;stroke-miterlimit:10;stroke-dasharray:none;stroke-dashoffset:0;stroke-opacity:1"/><path id="path1294-4-3-7-6" d="m 58.208329,270.54098 1.322916,-3.175 1.322917,3.175 z" clip-path="none" style="fill:none;fill-rule:evenodd;stroke:#000;stroke-width:.52916682;stroke-linecap:butt;stroke-linejoin:round;stroke-miterlimit:4;stroke-dasharray:none;stroke-opacity:1"/><text id="text959-2-89" x="52.917" y="258.247" clip-path="none" style="font-style:normal;font-weight:400;font-size:3.96875px;line-height:125%;font-family:sans-serif;letter-spacing:0;word-spacing:0;fill:#000;fill-opacity:1;stroke:none;stroke-width:.26458332px;stroke-linecap:butt;stroke-linejoin:miter;stroke-opacity:1" xml:space="preserve"><tspan style="stroke-width:.26458332px" id="tspan957-9-2" x="52.917" y="258.247">Skid</tspan><tspan style="stroke-width:.26458332px" id="tspan8612" x="52.917" y="263.208">Buffer</tspan></text><path style="fill:#ffe0e5;fill-opacity:0;fill-rule:evenodd;stroke:#000;stroke-width:.39687499;stroke-linecap:round;stroke-linejoin:round;stroke-miterlimit:4;stroke-dasharray:none;stroke-opacity:1" id="path1660-3-1-4-6" d="m 78.45022,255.99114 v 13.22917 l 3.96875,-2.11667 v -8.99583 l -3.96875,-2.11667"/><path style="fill:none;stroke:#000;stroke-width:.26458332px;stroke-linecap:butt;stroke-linejoin:miter;stroke-opacity:1" id="path8629" d="M 64.822917,265.25001 H 78.58125"/><path style="fill:none;stroke:#000;stroke-width:.26458332px;stroke-linecap:butt;stroke-linejoin:miter;stroke-opacity:1" id="path8631" d="m 75.935417,245.40626 v 14.55208 h 2.645833"/><path style="fill:none;stroke:#000;stroke-width:.26458332px;stroke-linecap:butt;stroke-linejoin:miter;stroke-opacity:1" id="path8635" d="m 82.285417,262.86876 h 6.085416"/><path style="fill:none;stroke:#000;stroke-width:.26458332px;stroke-linecap:butt;stroke-linejoin:miter;stroke-opacity:1" id="path8637" d="m 45.772917,228.20834 2.645834,-2.64583"/><text id="text959-2-1-6" x="45.252" y="249.995" clip-path="none" style="font-style:normal;font-weight:400;font-size:3.96875px;line-height:125%;font-family:sans-serif;letter-spacing:0;word-spacing:0;fill:#000;fill-opacity:1;stroke:none;stroke-width:.26458332px;stroke-linecap:butt;stroke-linejoin:miter;stroke-opacity:1" xml:space="preserve"><tspan style="font-size:2.82222223px;stroke-width:.26458332px" id="tspan957-9-8-4" x="45.252" y="249.995">64</tspan></text><path style="fill:none;stroke:#000;stroke-width:.26458332px;stroke-linecap:butt;stroke-linejoin:miter;stroke-opacity:1" id="path8637-9" d="m 45.508335,252.81474 2.645835,-2.64583"/><text id="text959-2-1-5" x="56.092" y="237.204" clip-path="none" style="font-style:normal;font-weight:400;font-size:3.96875px;line-height:125%;font-family:sans-serif;letter-spacing:0;word-spacing:0;fill:#000;fill-opacity:1;stroke:none;stroke-width:.26458332px;stroke-linecap:butt;stroke-linejoin:miter;stroke-opacity:1" xml:space="preserve"><tspan style="font-size:2.82222223px;stroke-width:.26458332px" id="tspan957-9-8-0" x="56.092" y="237.204">64</tspan></text><path style="fill:none;stroke:#000;stroke-width:.26458332px;stroke-linecap:butt;stroke-linejoin:miter;stroke-opacity:1" id="path8637-4" d="m 56.620834,240.11459 2.645835,-2.64583"/><text id="text959-2-1-8" x="64.823" y="237.204" clip-path="none" style="font-style:normal;font-weight:400;font-size:3.96875px;line-height:125%;font-family:sans-serif;letter-spacing:0;word-spacing:0;fill:#000;fill-opacity:1;stroke:none;stroke-width:.26458332px;stroke-linecap:butt;stroke-linejoin:miter;stroke-opacity:1" xml:space="preserve"><tspan style="font-size:2.82222223px;stroke-width:.26458332px" id="tspan957-9-8-7" x="64.823" y="237.204">32</tspan></text><path style="fill:none;stroke:#000;stroke-width:.26458332px;stroke-linecap:butt;stroke-linejoin:miter;stroke-opacity:1" id="path8637-1" d="m 65.087501,240.11459 2.645834,-2.64583"/><text id="text959-2-1-8-7" x="79.375" y="239.321" clip-path="none" style="font-style:normal;font-weight:400;font-size:3.96875px;line-height:125%;font-family:sans-serif;letter-spacing:0;word-spacing:0;fill:#000;fill-opacity:1;stroke:none;stroke-width:.26458332px;stroke-linecap:butt;stroke-linejoin:miter;stroke-opacity:1" xml:space="preserve"><tspan style="font-size:2.82222223px;stroke-width:.26458332px" id="tspan957-9-8-7-2" x="79.375" y="239.321">32</tspan></text><path style="fill:none;stroke:#000;stroke-width:.26458332px;stroke-linecap:butt;stroke-linejoin:miter;stroke-opacity:1" id="path8637-1-7" d="m 76.729167,239.58544 2.645835,-2.64583"/><text id="text959-2-1-8-7-2" x="77.258" y="250.169" clip-path="none" style="font-style:normal;font-weight:400;font-size:3.96875px;line-height:125%;font-family:sans-serif;letter-spacing:0;word-spacing:0;fill:#000;fill-opacity:1;stroke:none;stroke-width:.26458332px;stroke-linecap:butt;stroke-linejoin:miter;stroke-opacity:1" xml:space="preserve"><tspan style="font-size:2.82222223px;stroke-width:.26458332px" id="tspan957-9-8-7-2-2" x="77.258" y="250.169">32</tspan></text><path style="fill:none;stroke:#000;stroke-width:.26458332px;stroke-linecap:butt;stroke-linejoin:miter;stroke-opacity:1" id="path8637-1-7-6" d="m 74.6125,250.43333 2.645835,-2.64583"/><text id="text959-2-1-8-7-2-1" x="69.056" y="263.663" clip-path="none" style="font-style:normal;font-weight:400;font-size:3.96875px;line-height:125%;font-family:sans-serif;letter-spacing:0;word-spacing:0;fill:#000;fill-opacity:1;stroke:none;stroke-width:.26458332px;stroke-linecap:butt;stroke-linejoin:miter;stroke-opacity:1" xml:space="preserve"><tspan style="font-size:2.82222223px;stroke-width:.26458332px" id="tspan957-9-8-7-2-2-0" x="69.056" y="263.663">16</tspan></text><path style="fill:none;stroke:#000;stroke-width:.26458332px;stroke-linecap:butt;stroke-linejoin:miter;stroke-opacity:1" id="path8637-1-7-6-6" d="m 69.05625,266.57292 2.645835,-2.64583"/></g></g></svg>