<svg xmlns="http://www.w3.org/2000/svg" xmlns:svg="http://www.w3.org/2000/svg" xmlns:xlink="http://www.w3.org/1999/xlink" id="svg8" width="102mm" height="312" version="1.1" viewBox="0 0 102 82.55"><defs id="defs2"><linearGradient id="linearGradient4774"><stop style="stop-color:#e53651;stop-opacity:1" id="stop4770" offset="0"/><stop style="stop-color:#e53651;stop-opacity:0" id="stop4772" offset="1"/></linearGradient><marker id="SquareM" orient="auto" refX="0" refY="0" style="overflow:visible"><path id="path4711" d="M -5,-5 V 5 H 5 V -5 Z" style="fill:#0046ff;fill-opacity:1;fill-rule:evenodd;stroke:#0046ff;stroke-width:1.00000003pt;stroke-opacity:1" transform="scale(0.4)"/></marker><marker id="DotM" orient="auto" refX="0" refY="0" style="overflow:visible"><path id="path4702" d="m -2.5,-1 c 0,2.76 -2.24,5 -5,5 -2.76,0 -5,-2.24 -5,-5 0,-2.76 2.24,-5 5,-5 2.76,0 5,2.24 5,5 z" style="fill:#0046ff;fill-opacity:1;fill-rule:evenodd;stroke:#0046ff;stroke-width:1.00000003pt;stroke-opacity:1" transform="matrix(0.4,0,0,0.4,2.96,0.4)"/></marker><marker id="DotL" orient="auto" refX="0" refY="0" style="overflow:visible"><path id="path4699" d="m -2.5,-1 c 0,2.76 -2.24,5 -5,5 -2.76,0 -5,-2.24 -5,-5 0,-2.76 2.24,-5 5,-5 2.76,0 5,2.24 5,5 z" style="fill:#000;fill-opacity:1;fill-rule:evenodd;stroke:#000;stroke-width:1.00000003pt;stroke-opacity:1" transform="matrix(0.8,0,0,0.8,5.92,0.8)"/></marker><marker id="DotM-5" orient="auto" refX="0" refY="0" style="overflow:visible"><path id="path4702-6" d="m -2.5,-1 c 0,2.76 -2.24,5 -5,5 -2.76,0 -5,-2.24 -5,-5 0,-2.76 2.24,-5 5,-5 2.76,0 5,2.24 5,5 z" style="fill:#0046ff;fill-opacity:1;fill-rule:evenodd;stroke:#0046ff;stroke-width:1.00000003pt;stroke-opacity:1" transform="matrix(0.4,0,0,0.4,2.96,0.4)"/></marker><marker id="SquareM-2" orient="auto" refX="0" refY="0" style="overflow:visible"><path id="path4711-9" d="M -5,-5 V 5 H 5 V -5 Z" style="fill:#0046ff;fill-opacity:1;fill-rule:evenodd;stroke:#0046ff;stroke-width:1.00000003pt;stroke-opacity:1" transform="scale(0.4)"/></marker><marker id="DotM-5-2" orient="auto" refX="0" refY="0" style="overflow:visible"><path id="path4702-6-7" d="m -2.5,-1 c 0,2.76 -2.24,5 -5,5 -2.76,0 -5,-2.24 -5,-5 0,-2.76 2.24,-5 5,-5 2.76,0 5,2.24 5,5 z" style="fill:#0046ff;fill-opacity:1;fill-rule:evenodd;stroke:#0046ff;stroke-width:1.00000003pt;stroke-opacity:1" transform="matrix(0.4,0,0,0.4,2.96,0.4)"/></marker><marker id="SquareM-2-0" orient="auto" refX="0" refY="0" style="overflow:visible"><path id="path4711-9-9" d="M -5,-5 V 5 H 5 V -5 Z" style="fill:#0046ff;fill-opacity:1;fill-rule:evenodd;stroke:#0046ff;stroke-width:1.00000003pt;stroke-opacity:1" transform="scale(0.4)"/></marker><marker id="DotM-2" orient="auto" refX="0" refY="0" style="overflow:visible"><path id="path4702-0" d="m -2.5,-1 c 0,2.76 -2.24,5 -5,5 -2.76,0 -5,-2.24 -5,-5 0,-2.76 2.24,-5 5,-5 2.76,0 5,2.24 5,5 z" style="fill:#000;fill-opacity:1;fill-rule:evenodd;stroke:#000;stroke-width:1.00000003pt;stroke-opacity:1" transform="matrix(0.4,0,0,0.4,2.96,0.4)"/></marker><marker id="SquareM-23" orient="auto" refX="0" refY="0" style="overflow:visible"><path id="path4711-7" d="M -5,-5 V 5 H 5 V -5 Z" style="fill:#000;fill-opacity:1;fill-rule:evenodd;stroke:#000;stroke-width:1.00000003pt;stroke-opacity:1" transform="scale(0.4)"/></marker><linearGradient id="linearGradient4776" x1="52.917" x2="173.302" y1="212.333" y2="212.333" gradientUnits="userSpaceOnUse" xlink:href="#linearGradient4774"/><clipPath id="clipPath6338" clipPathUnits="userSpaceOnUse"><rect style="fill:none;stroke:#000;stroke-width:.74811929;stroke-miterlimit:4;stroke-dasharray:none;stroke-opacity:1" id="rect6340" width="17.198" height="15.875" x="186.531" y="225.563"/></clipPath><clipPath id="clipPath6444" clipPathUnits="userSpaceOnUse"><rect style="fill:none;stroke:#000;stroke-width:.1;stroke-miterlimit:4;stroke-dasharray:none;stroke-opacity:1" id="rect6446" width="100.542" height="96.573" x="-18.521" y="197.781"/></clipPath><clipPath id="clipPath4160" clipPathUnits="userSpaceOnUse"><rect style="fill:#000;fill-opacity:1;stroke:#000;stroke-width:.49247217;stroke-miterlimit:10;stroke-dasharray:none;stroke-opacity:1" id="rect4162" width="103.188" height="113.771" x="-10.583" y="191.167"/></clipPath><linearGradient id="linearGradient4164" x1="52.917" x2="173.302" y1="212.333" y2="212.333" gradientUnits="userSpaceOnUse" xlink:href="#linearGradient4774"/></defs><metadata id="metadata5"/><g id="layer1" transform="translate(8.1359365,-201.48542)"><g id="g4156" clip-path="url(#clipPath4160)"><rect id="rect4554-36-6-2" width="112.448" height="82.021" x="51.594" y="201.75" clip-path="none" ry="1.323" style="fill:url(#linearGradient4164);fill-opacity:1;stroke:none;stroke-width:.52916682;stroke-linecap:round;stroke-linejoin:round;stroke-miterlimit:10;stroke-dasharray:none;stroke-dashoffset:0;stroke-opacity:1"/><g id="g2924"><rect style="fill:#e53651;fill-opacity:1;stroke:none;stroke-width:.52916682;stroke-linecap:round;stroke-linejoin:round;stroke-miterlimit:10;stroke-dasharray:none;stroke-dashoffset:0;stroke-opacity:1" id="rect4554-36-6" width="39.688" height="82.021" x="13.229" y="201.75" clip-path="none" ry="1.323"/><rect style="fill:#ffe0e5;fill-opacity:1;stroke:#6c0e1d;stroke-width:.3310166;stroke-linecap:round;stroke-linejoin:round;stroke-miterlimit:10;stroke-dasharray:none;stroke-dashoffset:0;stroke-opacity:1" id="rect4554-36-7-5-6" width="47.625" height="54.24" x="19.844" y="214.979" clip-path="none" ry="0"/><text xml:space="preserve" style="font-style:normal;font-weight:400;font-size:3.96875px;line-height:125%;font-family:sans-serif;letter-spacing:0;word-spacing:0;fill:#000;fill-opacity:1;stroke:none;stroke-width:.26458332px;stroke-linecap:butt;stroke-linejoin:miter;stroke-opacity:1" id="text959-2" x="23.813" y="221.594" clip-path="none"><tspan id="tspan957-9" x="23.813" y="221.594" style="stroke-width:.26458332px">IF Stage</tspan></text><rect style="fill:#fff;fill-opacity:1;stroke:#000;stroke-width:.5291667;stroke-linecap:round;stroke-linejoin:round;stroke-miterlimit:10;stroke-dasharray:none;stroke-dashoffset:0;stroke-opacity:1" id="rect4554-36-7-5-6-6" width="38.365" height="17.198" x="23.812" y="228.208" clip-path="none" ry="1.323"/><text xml:space="preserve" style="font-style:normal;font-weight:400;font-size:3.96875px;line-height:125%;font-family:sans-serif;letter-spacing:0;word-spacing:0;fill:#000;fill-opacity:1;stroke:none;stroke-width:.26458332px;stroke-linecap:butt;stroke-linejoin:miter;stroke-opacity:1" id="text959-2-0" x="26.458" y="234.823" clip-path="none"><tspan id="tspan957-9-6" x="26.458" y="234.823" style="stroke-width:.26458332px">Prefetch</tspan><tspan x="26.458" y="239.784" style="stroke-width:.26458332px" id="tspan1150">Buffer</tspan></text><path style="fill:#fff;fill-opacity:1;fill-rule:evenodd;stroke:#000;stroke-width:.39687499;stroke-linecap:round;stroke-linejoin:round;stroke-miterlimit:4;stroke-dasharray:none;stroke-opacity:1;paint-order:stroke fill markers" id="path1152" d="m 25.135417,233.5 -1e-6,1.5875 H 23.01875 L 22.225,234.29375 23.01875,233.5 Z" clip-path="none"/><rect style="fill:#fff;fill-opacity:1;stroke:#000;stroke-width:.39687499;stroke-linecap:round;stroke-linejoin:round;stroke-miterlimit:10;stroke-dasharray:none;stroke-dashoffset:0;stroke-opacity:1" id="rect4554-36-7-5-6-2" width="7.938" height="50.271" x="-7.937" y="216.302" clip-path="none" ry="1.323"/><text xml:space="preserve" style="font-style:normal;font-weight:400;font-size:3.96875px;line-height:125%;font-family:sans-serif;letter-spacing:0;word-spacing:0;fill:#000;fill-opacity:1;stroke:none;stroke-width:.26458332px;stroke-linecap:butt;stroke-linejoin:miter;stroke-opacity:1" id="text971" x="-257.577" y="-2.646" clip-path="none" transform="rotate(-90)"><tspan id="tspan969" x="-257.577" y="-2.646" style="stroke-width:.26458332px">Instruction Mem</tspan></text><path style="fill:#fff;fill-opacity:1;fill-rule:evenodd;stroke:#000;stroke-width:.39687499;stroke-linecap:round;stroke-linejoin:round;stroke-miterlimit:4;stroke-dasharray:none;stroke-opacity:1;paint-order:stroke fill markers" id="path1152-6" d="m 1.3229167,233.5 -8e-7,1.5875 H -0.79375033 L -1.5875003,234.29375 -0.79375033,233.5 Z" clip-path="none"/><path style="fill:none;fill-rule:evenodd;stroke:#000;stroke-width:.265;stroke-linecap:butt;stroke-linejoin:miter;stroke-miterlimit:4;stroke-dasharray:none;stroke-opacity:1" id="path1188" d="M 22.225,234.29375 H 1.3229166" clip-path="none"/><text xml:space="preserve" style="font-style:normal;font-weight:400;font-size:3.96875px;line-height:125%;font-family:sans-serif;letter-spacing:0;word-spacing:0;fill:#000;fill-opacity:1;stroke:none;stroke-width:.26458332px;stroke-linecap:butt;stroke-linejoin:miter;stroke-opacity:1" id="text959-2-1" x="1.399" y="232.65" clip-path="none"><tspan id="tspan957-9-8" x="1.399" y="232.65" style="font-size:2.82222223px;stroke-width:.26458332px">addr_o</tspan></text><path style="fill:#fff;fill-opacity:1;fill-rule:evenodd;stroke:#000;stroke-width:.39687499;stroke-linecap:round;stroke-linejoin:round;stroke-miterlimit:4;stroke-dasharray:none;stroke-opacity:1;paint-order:stroke fill markers" id="path1152-7" d="m -1.322916,236.41042 v 1.5875 H 0.79375 l 0.79375,-0.79375 -0.79375,-0.79375 z" clip-path="none"/><path style="fill:none;fill-rule:evenodd;stroke:#000;stroke-width:.265;stroke-linecap:butt;stroke-linejoin:miter;stroke-miterlimit:4;stroke-dasharray:none;stroke-opacity:1" id="path1188-2" d="m 48.947918,234.28254 -3.96875,0.0112 0,1.85208 h -19.84375 v 1.05833 H 1.5874927" clip-path="none"/><text xml:space="preserve" style="font-style:normal;font-weight:400;font-size:3.96875px;line-height:125%;font-family:sans-serif;letter-spacing:0;word-spacing:0;fill:#000;fill-opacity:1;stroke:none;stroke-width:.26458332px;stroke-linecap:butt;stroke-linejoin:miter;stroke-opacity:1" id="text959-2-1-0" x="1.663" y="240.852" clip-path="none"><tspan id="tspan957-9-8-2" x="1.663" y="240.852" style="font-size:2.82222223px;stroke-width:.26458332px">rdata_i</tspan></text><path style="fill:none;fill-rule:evenodd;stroke:#000;stroke-width:.26458332px;stroke-linecap:round;stroke-linejoin:round;stroke-opacity:1" id="path1235" d="m 17.197915,236.14583 -1.322917,2.11667" clip-path="none"/><text xml:space="preserve" style="font-style:normal;font-weight:400;font-size:3.96875px;line-height:125%;font-family:sans-serif;letter-spacing:0;word-spacing:0;fill:#000;fill-opacity:1;stroke:none;stroke-width:.26458332px;stroke-linecap:butt;stroke-linejoin:miter;stroke-opacity:1" id="text959-2-1-0-3" x="14.287" y="240.908" clip-path="none"><tspan id="tspan957-9-8-2-7" x="14.287" y="240.908" style="font-size:2.82222223px;stroke-width:.26458332px">32</tspan></text><path style="fill:none;fill-rule:evenodd;stroke:#000;stroke-width:.5291667;stroke-linecap:butt;stroke-linejoin:round;stroke-miterlimit:4;stroke-dasharray:none;stroke-opacity:1" id="path1294" d="m 33.072917,245.40625 1.322917,-3.175 1.322917,3.175 z" clip-path="none"/><rect style="fill:#fff;fill-opacity:1;stroke:#000;stroke-width:.52916676;stroke-linecap:round;stroke-linejoin:round;stroke-miterlimit:10;stroke-dasharray:none;stroke-dashoffset:0;stroke-opacity:1" id="rect4554-36-7-5-6-6-2" width="21.167" height="17.198" x="23.813" y="249.375" clip-path="none" ry="1.323"/><text xml:space="preserve" style="font-style:normal;font-weight:400;font-size:3.96875px;line-height:125%;font-family:sans-serif;letter-spacing:0;word-spacing:0;fill:#000;fill-opacity:1;stroke:none;stroke-width:.26458332px;stroke-linecap:butt;stroke-linejoin:miter;stroke-opacity:1" id="text959-2-0-8" x="26.458" y="255.99" clip-path="none"><tspan id="tspan957-9-6-9" x="26.458" y="255.99" style="stroke-width:.26458332px">Comp</tspan><tspan x="26.458" y="260.951" style="stroke-width:.26458332px" id="tspan1150-7">Decoder</tspan></text><g id="g5370" clip-path="none" transform="translate(22.489587,2.3504841e-6)"><rect id="rect4554-36-7-5-6-5" width="9.26" height="64.823" x="55.563" y="214.979" ry="0" style="fill:#ffe0e5;fill-opacity:1;stroke:#6c0e1d;stroke-width:.26499999;stroke-linecap:round;stroke-linejoin:round;stroke-miterlimit:10;stroke-dasharray:none;stroke-dashoffset:0;stroke-opacity:1"/><text id="text959-9" x="56.885" y="243.025" style="font-style:normal;font-weight:400;font-size:3.96875px;line-height:125%;font-family:sans-serif;letter-spacing:0;word-spacing:0;fill:#000;fill-opacity:1;stroke:none;stroke-width:.26458332px;stroke-linecap:butt;stroke-linejoin:miter;stroke-opacity:1" xml:space="preserve"><tspan id="tspan1288" style="stroke-width:.26458332px" x="56.885" y="243.025">ID</tspan><tspan style="stroke-width:.26458332px" id="tspan1959" x="56.885" y="247.986">EX</tspan></text><path id="path1294-3" d="m 59.002083,279.80206 1.322917,-3.175 1.322917,3.175 z" style="fill:none;fill-rule:evenodd;stroke:#6c0e1d;stroke-width:.26499999;stroke-linecap:butt;stroke-linejoin:round;stroke-miterlimit:4;stroke-dasharray:none;stroke-opacity:1"/></g><text xml:space="preserve" style="font-style:normal;font-weight:400;font-size:3.96875px;line-height:125%;font-family:sans-serif;letter-spacing:0;word-spacing:0;fill:#000;fill-opacity:1;stroke:none;stroke-width:.26458332px;stroke-linecap:butt;stroke-linejoin:miter;stroke-opacity:1" id="text2070" x="16.404" y="209.688" clip-path="none"><tspan id="tspan2068" x="16.404" y="209.688" style="font-style:normal;font-variant:normal;font-weight:700;font-stretch:normal;font-size:6.3499999px;font-family:sans-serif;-inkscape-font-specification:'sans-serif Bold';fill:#fff;fill-opacity:1;stroke-width:.26458332px">Ibex Core</tspan></text><path style="fill:#fff;fill-opacity:1;fill-rule:evenodd;stroke:#000;stroke-width:.39687499;stroke-linecap:round;stroke-linejoin:round;stroke-miterlimit:4;stroke-dasharray:none;stroke-opacity:1;paint-order:stroke fill markers" id="path1152-638" d="m 22.489583,241.4375 1e-6,1.5875 H 24.60625 L 25.4,242.23125 24.60625,241.4375 Z" clip-path="none"/><path style="fill:none;fill-rule:evenodd;stroke:#000;stroke-width:.265;stroke-linecap:butt;stroke-linejoin:round;stroke-opacity:1;stroke-miterlimit:4;stroke-dasharray:none" id="path2367" d="m 58.208335,234.29375 h 19.84375" clip-path="none"/><path style="fill:none;fill-rule:evenodd;stroke:#000;stroke-width:.26458332px;stroke-linecap:butt;stroke-linejoin:round;stroke-opacity:1" id="path2367-1" d="M 46.566667,259.69378 H 78.052085" clip-path="none"/><path style="fill:#fff;fill-opacity:1;fill-rule:evenodd;stroke:#000;stroke-width:.39687499;stroke-linecap:round;stroke-linejoin:round;stroke-miterlimit:4;stroke-dasharray:none;stroke-opacity:1;paint-order:stroke fill markers" id="path1152-0" d="m 46.302083,255.98958 -1e-6,1.5875 h -2.116666 l -0.79375,-0.79375 0.79375,-0.79375 z" clip-path="none"/><path style="fill:#fff;fill-opacity:1;fill-rule:evenodd;stroke:#000;stroke-width:.39687499;stroke-linecap:round;stroke-linejoin:round;stroke-miterlimit:4;stroke-dasharray:none;stroke-opacity:1;paint-order:stroke fill markers" id="path1152-6-9-3" d="m 43.656249,258.9 10e-7,1.5875 h 2.116666 l 0.79375,-0.79375 -0.79375,-0.79375 z" clip-path="none"/><path style="fill:none;fill-rule:evenodd;stroke:#000;stroke-width:.26458332px;stroke-linecap:butt;stroke-linejoin:round;stroke-opacity:1" id="path2483" d="m 64.756772,234.29375 v 22.48958 H 46.302085" clip-path="none"/><circle style="fill:#000;fill-opacity:1;stroke:#000;stroke-width:.39687499;stroke-linecap:round;stroke-linejoin:round;stroke-miterlimit:4;stroke-dasharray:none;stroke-dashoffset:0;stroke-opacity:1;paint-order:stroke fill markers" id="path1737-4" cx="64.757" cy="234.294" r=".132" clip-path="none"/><path style="fill:#fff;stroke-width:.21166666" id="path2580" d="m 26.511665,274.51452 c 0.04847,0.083 -0.04826,4.72377 -0.08297,5.25611 0,0 -0.933661,0.007 -0.988906,-0.0275 -0.05525,-0.0417 -0.05525,-5.11111 0.04847,-5.20086 0.09652,-0.09 1.002666,-0.0762 1.023409,-0.0278 m 5.262457,1.71513 c 0.08297,0 0.581024,2.27563 0.581024,2.27563 0.172932,-0.53975 0.532554,-1.3625 0.608542,-1.6256 -0.03429,-0.11748 -0.158962,-0.44958 -0.158962,-0.52536 0.06922,-0.0692 0.871432,-0.1524 0.954405,-0.10392 0.06922,0.0417 0.601557,2.13021 0.636271,2.24092 0.04149,-0.11071 0.663786,-2.26844 0.6985,-2.27543 0.0417,-0.006 1.009861,0.20067 1.002876,0.24215 -0.09673,0.43561 -1.092624,3.27131 -1.127336,3.30602 -0.08996,0.076 -1.086062,-0.014 -1.092836,-0.0345 -0.007,-0.006 -0.248708,-0.72623 -0.470323,-1.61841 -0.297392,0.87165 -0.622512,1.63217 -0.63627,1.65312 -0.09017,0.076 -1.08585,-0.014 -1.092835,-0.0279 -0.007,-0.0135 -0.912918,-3.09139 -0.905933,-3.30601 0,-0.0487 0.913129,-0.20067 1.002877,-0.20067 m 4.806103,3.50647 c -0.0345,-0.32491 -0.0068,-4.32943 0.05546,-4.80652 0.352848,-0.0417 1.09982,-0.0762 1.639358,-0.0762 1.327785,0 2.088515,0.52536 2.088515,1.68063 0,0.71925 -0.338879,1.14109 -0.878205,1.3625 0.525569,0.63627 1.065106,1.47997 1.044152,1.5077 -0.07599,0.10372 -0.871432,0.43561 -1.078865,0.42884 -0.02074,0 -0.622512,-0.97515 -1.196552,-1.72932 -0.02773,0.007 -0.06223,0.007 -0.08996,0.007 -0.117687,0 -0.283634,-0.007 -0.366607,-0.0138 -0.007,0.4773 -0.007,1.41773 -0.0345,1.6184 -0.06922,0.0278 -1.175809,0.0622 -1.182793,0.0207 m 1.784352,-2.57979 c 0.44958,0 0.760942,-0.17992 0.760942,-0.59479 0,-0.38735 -0.20066,-0.63627 -0.802217,-0.63627 -0.131445,0 -0.318347,0.006 -0.456565,0.0207 0.007,0.18669 0,0.94763 0,1.18957 0.131233,0.014 0.338667,0.0207 0.49784,0.0207 m 4.02463,-2.25467 c 0.04826,0.29061 0.0417,4.37112 -0.0068,4.81372 -0.04149,0.12446 -1.224068,0.0762 -1.231053,0.0278 -0.02773,-0.49086 -0.04826,-4.16348 0.007,-4.82748 0.221191,-0.0832 1.189355,-0.0553 1.230842,-0.014 m 0.691303,4.35715 c -0.02773,-0.13843 0.31115,-1.02362 0.38735,-0.98891 0.158962,0.0969 0.677756,0.47054 1.265767,0.47054 0.408093,0 0.670983,-0.12467 0.670983,-0.42186 0,-0.22119 -0.166158,-0.38734 -0.878417,-0.53255 -0.905881,-0.18669 -1.410918,-0.60853 -1.410918,-1.51468 0,-0.78846 0.643255,-1.4732 1.812078,-1.4732 0.733213,0 1.34874,0.19388 1.618403,0.40809 0.09017,0.0692 -0.324908,0.96838 -0.394123,0.96139 -0.103929,-0.0482 -0.608753,-0.30437 -1.196552,-0.30437 -0.414866,0 -0.608753,0.16616 -0.608753,0.39433 0,0.21421 0.117687,0.32491 0.788458,0.4771 0.891963,0.20743 1.58369,0.56705 1.58369,1.51469 0,0.7332 -0.587798,1.50071 -1.936538,1.50071 -0.7747,-2.1e-4 -1.452457,-0.30438 -1.701377,-0.49128 m 6.521451,-0.56705 c 0.560281,0 0.940646,-0.29718 1.092623,-0.4081 0.159173,0.11071 0.463549,0.67077 0.57404,0.90594 -0.297392,0.33887 -0.995892,0.67098 -1.791335,0.67098 -1.618404,0 -2.37236,-1.15485 -2.37236,-2.60054 0,-1.39022 0.982133,-2.4621 2.552064,-2.4621 0.795444,0 1.369272,0.24892 1.583691,0.45656 0,0.13822 -0.290407,0.88519 -0.463339,1.0306 -0.24892,-0.14541 -0.670772,-0.3321 -1.106593,-0.3321 -0.712259,0 -1.265555,0.56727 -1.265555,1.35573 2.12e-4,0.9889 0.608753,1.38303 1.196764,1.38303 m -20.118542,-1.07757 c 0.08678,0.13208 0.138006,0.28956 0.138006,0.45931 a 0.8382,0.8382 0 1 1 -0.8382,-0.8382 c 0.147956,0 0.284692,0.0417 0.405342,0.1088 l 0.704003,-0.704 c -0.303529,-0.2358 -0.692573,-0.36152 -1.119716,-0.36152 -1.078865,0 -1.743075,0.85068 -1.743075,1.71534 0,1.12713 0.7747,1.8051 1.756834,1.8051 1.106592,-0.0207 1.749848,-0.82318 1.749848,-1.71536 0,-0.47328 -0.136102,-0.86317 -0.363432,-1.15887 z m -5.233458,-1.23401 -3.345604,3.34539 c 0.251037,0.35411 0.20701,0.85682 -0.134197,1.15717 -0.333375,0.29338 -0.855767,0.28173 -1.176231,-0.0256 a 0.87270168,0.87270168 0 0 1 -0.01334,-1.24332 c 0.303529,-0.30354 0.779356,-0.33402 1.118658,-0.0934 l 3.473662,-3.47344 c -0.524934,-1.93294 -2.29108,-3.35471 -4.390179,-3.35471 -2.300605,0 -4.20116,1.70773 -4.50596,3.92451 l 1.028488,-1.02848 a 0.38629166,0.38629166 0 0 1 0.273051,-0.11324 h 1.200784 c 0.06985,-0.41 0.42799,-0.72517 0.857039,-0.72517 0.343958,0 0.66802,0.19621 0.798195,0.51456 0.255058,0.62336 -0.204682,1.22555 -0.798195,1.22555 -0.429049,0 -0.787189,-0.31496 -0.857039,-0.72518 h -1.138337 a 0.24765,0.24765 0 0 0 -0.174837,0.0724 l -1.228514,1.22873 c -0.0021,0.0589 -0.0045,0.11705 -0.0045,0.17611 0,0.6968 0.157057,1.35699 0.437304,1.94733 l 0.92202,-0.92202 c -0.240665,-0.33931 -0.210185,-0.81513 0.09313,-1.11866 a 0.87249,0.87249 0 0 1 1.230419,0 0.87270168,0.87270168 0 0 1 0,1.23063 c -0.303319,0.30332 -0.779357,0.33401 -1.118659,0.0931 l -0.987001,0.987 a 4.5684017,4.5684017 0 0 0 1.102148,1.3098 l 3.917738,-3.91774 c 0.0436,-0.0436 0.06816,-0.10308 0.06816,-0.16489 v -1.52569 c -0.428414,-0.0728 -0.753534,-0.46101 -0.723054,-0.91567 0.02921,-0.43942 0.401109,-0.79756 0.841588,-0.8109 a 0.87249,0.87249 0 0 1 0.89662,0.86974 c 0,0.42926 -0.31496,0.7874 -0.725171,0.85704 v 1.57818 c 0,0.1052 -0.0417,0.20617 -0.115993,0.28047 l -3.927264,3.92705 a 4.5247983,4.5247983 0 0 0 2.637791,0.84518 c 2.512694,0 4.549986,-2.03708 4.549986,-4.54998 a 4.5698834,4.5698834 0 0 0 -0.08276,-0.86191" clip-path="none"/><path style="fill:none;fill-rule:evenodd;stroke:#000;stroke-width:.26458332px;stroke-linecap:butt;stroke-linejoin:round;stroke-opacity:1" id="path2320" d="m 22.489584,242.23126 h -1.322916 v 28.31042 h 33.072916 v 10.58333 h 43.656251" clip-path="none"/><g id="g6378" clip-path="none"><g id="g6384"><g id="g6390"><g id="g6396" transform="rotate(-90,123.69271,302.95313)"><rect id="rect5381" width="6.615" height="13.229" x="189.177" y="224.24" ry="1.47" style="fill:none;stroke:#000;stroke-width:.55761498;stroke-miterlimit:4;stroke-dasharray:none;stroke-opacity:1" clip-path="url(#clipPath6338)"/><path style="fill:none;stroke:#000;stroke-width:.26458332px;stroke-linecap:butt;stroke-linejoin:miter;stroke-opacity:1" id="path6342" d="m 189.17708,228.20834 h 6.61459"/><path style="fill:none;stroke:#000;stroke-width:.26458332px;stroke-linecap:butt;stroke-linejoin:miter;stroke-opacity:1" id="path6342-5" d="m 189.17708,230.85417 h 6.61459"/><path style="fill:none;stroke:#000;stroke-width:.26458332px;stroke-linecap:butt;stroke-linejoin:miter;stroke-opacity:1" id="path6342-5-6" d="m 189.17708,233.50001 h 6.61459"/></g></g></g></g><text xml:space="preserve" style="font-style:normal;font-weight:400;font-size:2.82222223px;line-height:2.51530552px;font-family:sans-serif;letter-spacing:0;word-spacing:0;fill:#000;fill-opacity:1;stroke:none;stroke-width:.26458332px;stroke-linecap:butt;stroke-linejoin:miter;stroke-opacity:1" id="text959-2-0-2" x="47.625" y="240.115" clip-path="none"><tspan x="47.625" y="240.115" style="font-size:2.82222223px;line-height:89.12498951%;stroke-width:.26458332px" id="tspan1150-2">Fetch</tspan><tspan x="47.625" y="242.63" style="font-size:2.82222223px;line-height:89.12498951%;stroke-width:.26458332px" id="tspan6432">FIFO</tspan></text><text id="text959-2-1-9-3" x="55.563" y="279.802" style="font-style:normal;font-weight:400;font-size:3.96875px;line-height:125%;font-family:sans-serif;letter-spacing:0;word-spacing:0;fill:#000;fill-opacity:1;stroke:none;stroke-width:.26458332px;stroke-linecap:butt;stroke-linejoin:miter;stroke-opacity:1" clip-path="none" xml:space="preserve"><tspan style="font-size:2.82222223px;stroke-width:.26458332px" id="tspan957-9-8-12-6" x="55.563" y="279.802">jump_target_ex</tspan></text><path style="fill:none;stroke:#000;stroke-width:.26458332;stroke-linecap:butt;stroke-linejoin:miter;stroke-opacity:1;stroke-miterlimit:4;stroke-dasharray:.79374995,.26458332;stroke-dashoffset:.10583333" id="path912" d="m 48.947917,234.29376 h 9.260416 v 0"/></g><rect id="rect4554-36" width="150.813" height="82.021" x="13.229" y="201.75" clip-path="none" ry="1.323" style="fill:none;fill-opacity:1;stroke:#6c0e1d;stroke-width:.52899998;stroke-linecap:round;stroke-linejoin:round;stroke-miterlimit:10;stroke-dasharray:none;stroke-dashoffset:0;stroke-opacity:1"/></g></g></svg>